<svg width="65" height="65" viewBox="0 0 65 65" fill="none" xmlns="http://www.w3.org/2000/svg">
<circle cx="32.5" cy="32.5" r="32.5" fill="#490BC3"/>
<path d="M40.5135 44.3358L45.7202 39.86L44.5725 38.8563L40.5135 42.3508L38.7627 40.79L37.6132 41.8017L40.5135 44.3358ZM21.0783 26.5734H40.2587V24.9726H21.0765L21.0783 26.5734ZM41.6667 48C39.6243 48 37.8918 47.3784 36.4692 46.1351C35.0453 44.8929 34.3333 43.3801 34.3333 41.5968C34.3333 39.8135 35.0453 38.3003 36.4692 37.057C37.8931 35.8137 39.6255 35.1926 41.6667 35.1936C43.7078 35.1947 45.4409 35.8158 46.866 37.057C48.2911 38.2981 49.0024 39.8114 49 41.5968C49 43.379 48.2887 44.8918 46.866 46.1351C45.4409 47.3784 43.7078 48 41.6667 48ZM16 45.8437V19H45.3333V31.102C44.2431 30.7893 43.126 30.6287 41.982 30.6202C40.838 30.6116 39.7105 30.7402 38.5995 31.006H21.0765V32.6068H34.4818C33.5627 33.1628 32.7524 33.8154 32.0508 34.5645C31.3493 35.3137 30.7712 36.1386 30.3165 37.0394H21.0783V38.6402H29.7133C29.5813 39.0713 29.4787 39.5062 29.4053 39.9448C29.332 40.3834 29.2947 40.8412 29.2935 41.3183C29.2935 42.0493 29.3809 42.7745 29.5557 43.4938C29.7304 44.2131 29.9932 44.9062 30.344 45.5732L30.2817 45.6276L28.2008 44.3054L25.7332 45.8437L23.2655 44.3054L20.7978 45.8437L18.3283 44.3054L16 45.8437Z" fill="white"/>
</svg>
