<svg width="65" height="65" viewBox="0 0 65 65" fill="none" xmlns="http://www.w3.org/2000/svg">
<circle cx="32.5" cy="32.5" r="32.5" fill="#FFC915"/>
<path d="M20 21C20 19.35 21.35 18 23 18H41C41.7956 18 42.5587 18.3161 43.1213 18.8787C43.6839 19.4413 44 20.2044 44 21V45C44 45.7956 43.6839 46.5587 43.1213 47.1213C42.5587 47.6839 41.7956 48 41 48H23C22.2044 48 21.4413 47.6839 20.8787 47.1213C20.3161 46.5587 20 45.7956 20 45V21ZM24.5 22.5V25.5H39.5V22.5H24.5ZM24.5 28.5V31.5H27.5V28.5H24.5ZM30.5 28.5V31.5H33.5V28.5H30.5ZM36.5 28.5V31.5H39.5V28.5H36.5ZM24.5 34.5V37.5H27.5V34.5H24.5ZM30.5 34.5V37.5H33.5V34.5H30.5ZM36.5 34.5V43.5H39.5V34.5H36.5ZM24.5 40.5V43.5H27.5V40.5H24.5ZM30.5 40.5V43.5H33.5V40.5H30.5Z" fill="white"/>
</svg>
