<svg width="65" height="65" viewBox="0 0 65 65" fill="none" xmlns="http://www.w3.org/2000/svg">
<circle cx="32.5" cy="32.5" r="32.5" fill="#10BF41"/>
<path fill-rule="evenodd" clip-rule="evenodd" d="M32.2292 17.875C28.8038 17.875 25.6833 19.0873 23.8367 20.0777C23.6699 20.1671 23.5142 20.2543 23.3696 20.3393C23.083 20.5067 22.8388 20.6627 22.6446 20.8L24.7452 24.1134L25.7341 24.5351C29.5986 26.624 34.781 26.624 38.6462 24.5351L39.7686 23.9111L41.7546 20.8C41.3428 20.5133 40.9151 20.2536 40.4738 20.0224C38.6364 19.0426 35.5902 17.875 32.23 17.875M27.3448 21.6255C26.6011 21.4756 25.8665 21.278 25.1449 21.034C26.8746 20.2109 29.4522 19.3375 32.23 19.3375C34.1539 19.3375 35.9731 19.7568 37.4776 20.2881C35.7145 20.5538 33.8331 21.0047 32.0404 21.5597C30.6299 21.9968 28.9813 21.9497 27.3448 21.6255ZM39.4478 25.74L39.2612 25.8407C35.01 28.1385 29.3711 28.1385 25.1198 25.8407L24.9432 25.7449C18.5557 33.2532 13.6796 47.1226 32.2292 47.1226C50.7788 47.1226 45.7844 32.9956 39.4478 25.74ZM31.4413 32.5C31.0391 32.5 30.6533 32.6712 30.3689 32.976C30.0844 33.2807 29.9246 33.694 29.9246 34.125C29.9246 34.556 30.0844 34.9693 30.3689 35.274C30.6533 35.5788 31.0391 35.75 31.4413 35.75V32.5ZM32.958 30.875V30.0625H31.4413V30.875C30.6368 30.875 29.8653 31.2174 29.2964 31.8269C28.7276 32.4364 28.408 33.263 28.408 34.125C28.408 34.987 28.7276 35.8136 29.2964 36.4231C29.8653 37.0326 30.6368 37.375 31.4413 37.375V40.625C30.7816 40.625 30.2196 40.1741 30.0103 39.5419C29.9793 39.4385 29.9292 39.3428 29.863 39.2605C29.7968 39.1782 29.7159 39.1109 29.6251 39.0627C29.5342 39.0145 29.4353 38.9863 29.334 38.9797C29.2328 38.9732 29.1314 38.9885 29.0358 39.0247C28.9402 39.0609 28.8524 39.1172 28.7774 39.1904C28.7025 39.2636 28.6421 39.3522 28.5996 39.4509C28.5572 39.5496 28.5337 39.6564 28.5305 39.7649C28.5273 39.8735 28.5444 39.9817 28.5809 40.0831C28.79 40.7169 29.1773 41.2656 29.6896 41.6537C30.2019 42.0418 30.8139 42.2501 31.4413 42.25V43.0625H32.958V42.25C33.7625 42.25 34.534 41.9076 35.1029 41.2981C35.6717 40.6886 35.9913 39.862 35.9913 39C35.9913 38.138 35.6717 37.3114 35.1029 36.7019C34.534 36.0924 33.7625 35.75 32.958 35.75V32.5C33.6177 32.5 34.1797 32.9509 34.389 33.5831C34.42 33.6865 34.4701 33.7822 34.5363 33.8645C34.6025 33.9468 34.6834 34.0141 34.7742 34.0623C34.8651 34.1105 34.964 34.1387 35.0653 34.1453C35.1665 34.1518 35.2679 34.1365 35.3635 34.1003C35.4591 34.0641 35.5469 34.0078 35.6219 33.9346C35.6968 33.8614 35.7572 33.7728 35.7996 33.6741C35.8421 33.5754 35.8656 33.4686 35.8688 33.3601C35.872 33.2515 35.8549 33.1433 35.8184 33.0419C35.6093 32.4081 35.222 31.8594 34.7097 31.4713C34.1974 31.0832 33.5854 30.8749 32.958 30.875ZM32.958 37.375V40.625C33.3602 40.625 33.746 40.4538 34.0304 40.149C34.3149 39.8443 34.4746 39.431 34.4746 39C34.4746 38.569 34.3149 38.1557 34.0304 37.851C33.746 37.5462 33.3602 37.375 32.958 37.375Z" fill="white"/>
</svg>
