<svg width="141" height="60" viewBox="0 0 141 60" fill="none" xmlns="http://www.w3.org/2000/svg">
<path d="M16.293 60H0.5L21.0131 0H40.5762L61.0892 60H45.2962L31.0173 15.1172H30.5423L16.293 60ZM14.1853 36.3867H47.1962V47.4023H14.1853V36.3867Z" fill="#7631FF"/>
<path d="M40.0807 11.7773V0H97.737V11.7773H79.3019V60H64.8151V11.7773H40.0807Z" fill="#7631FF"/>
<path d="M93.2101 60V0H118.325C122.876 0 126.805 0.878907 130.11 2.63672C133.435 4.375 135.998 6.80664 137.799 9.93164C139.6 13.0371 140.5 16.6504 140.5 20.7715C140.5 24.9121 139.58 28.5352 137.739 31.6406C135.918 34.7266 133.316 37.1191 129.932 38.8184C126.548 40.5176 122.53 41.3672 117.879 41.3672H102.383V29.9414H115.148C117.365 29.9414 119.215 29.5605 120.699 28.7988C122.203 28.0371 123.341 26.9727 124.113 25.6055C124.885 24.2187 125.271 22.6074 125.271 20.7715C125.271 18.916 124.885 17.3145 124.113 15.9668C123.341 14.5996 122.203 13.5449 120.699 12.8027C119.195 12.0605 117.345 11.6895 115.148 11.6895H107.905V60H93.2101Z" fill="#7631FF"/>
</svg>
