<svg width="38" height="38" viewBox="0 0 38 38" fill="none" xmlns="http://www.w3.org/2000/svg">
<path d="M11.3779 22.9771V29.605C11.3779 31.4349 16.274 32.9189 22.314 32.9189C28.354 32.9189 33.25 31.4349 33.25 29.605V22.9771H11.3779Z" fill="#881421"/>
<path d="M11.3779 15.686V22.9767C11.3779 24.8067 16.274 26.2907 22.314 26.2907C28.354 26.2907 33.25 24.8067 33.25 22.9767V15.686H11.3779Z" fill="#AF2031"/>
<path d="M11.3779 8.39551V15.6862C11.3779 17.5162 16.274 19.0002 22.314 19.0002C28.354 19.0002 33.25 17.5162 33.25 15.6862V8.39551H11.3779Z" fill="#C94F60"/>
<path d="M22.314 11.7094C28.3538 11.7094 33.25 10.2257 33.25 8.39549C33.25 6.56525 28.3538 5.08154 22.314 5.08154C16.2742 5.08154 11.3779 6.56525 11.3779 8.39549C11.3779 10.2257 16.2742 11.7094 22.314 11.7094Z" fill="#E08095"/>
<path opacity="0.1" d="M19.4421 11.0469H11.3779V27.6166H19.4421C20.1122 27.6144 20.6548 27.0718 20.657 26.4017V12.2618C20.6548 11.5917 20.1122 11.0491 19.4421 11.0469Z" fill="black"/>
<path opacity="0.2" d="M18.7793 11.7095H11.3779V28.2792H18.7793C19.4494 28.277 19.992 27.7344 19.9942 27.0643V12.9244C19.992 12.2543 19.4494 11.7117 18.7793 11.7095Z" fill="black"/>
<path opacity="0.2" d="M18.7793 11.7095H11.3779V26.9537H18.7793C19.4494 26.9515 19.992 26.4088 19.9942 25.7388V12.9244C19.992 12.2543 19.4494 11.7117 18.7793 11.7095Z" fill="black"/>
<path opacity="0.2" d="M18.1165 11.7095H11.3779V26.9537H18.1165C18.7866 26.9515 19.3292 26.4088 19.3314 25.7388V12.9244C19.3292 12.2543 18.7866 11.7117 18.1165 11.7095Z" fill="black"/>
<path d="M5.9649 11.7095H18.1165C18.7875 11.7095 19.3314 12.2534 19.3314 12.9244V25.076C19.3314 25.7469 18.7875 26.2909 18.1165 26.2909H5.9649C5.29393 26.2909 4.75 25.7469 4.75 25.076V12.9244C4.75 12.2534 5.29393 11.7095 5.9649 11.7095Z" fill="url(#paint0_linear_716_57499)"/>
<path d="M11.1679 15.0508H12.9575L15.8327 22.9493H14.1426L13.5089 21.0656H10.5509L9.92853 22.9493H8.24902L11.1679 15.0508ZM13.1285 19.8487L12.2092 16.9901C12.134 16.7806 12.0777 16.5647 12.0409 16.3452H12.0077C11.9735 16.5708 11.9183 16.7927 11.8427 17.008L10.9148 19.85L13.1285 19.8487Z" fill="white"/>
<defs>
<linearGradient id="paint0_linear_716_57499" x1="7.28308" y1="10.7602" x2="16.7983" y2="27.2402" gradientUnits="userSpaceOnUse">
<stop stop-color="#B72C3F"/>
<stop offset="0.5" stop-color="#B12334"/>
<stop offset="1" stop-color="#9D1623"/>
</linearGradient>
</defs>
</svg>
