<svg width="657" height="122" viewBox="0 0 657 122" fill="none" xmlns="http://www.w3.org/2000/svg">
<path d="M199.888 79.8061C199.888 65.4217 213.027 57.123 231.699 57.123H251.063C251.063 46.1963 243.456 39.4191 231.561 39.4191C222.709 39.4191 215.655 43.2918 210.261 49.5158C205.48 44.5735 206.776 36.3854 212.88 33.2227C218.412 30.3596 224.747 28.769 231.838 28.769C250.786 28.769 263.511 39.5574 263.511 56.708V99.5847H260.468C255.503 99.5847 251.478 95.5598 251.478 90.5944C245.945 97.51 236.955 101.798 226.167 101.798C210.538 101.798 199.888 92.6691 199.888 79.8061ZM251.063 68.7688V66.6665H233.082C221.603 66.6665 213.166 70.8158 213.166 79.3912C213.166 86.86 219.251 91.5626 228.38 91.5626C228.707 91.5626 229.034 91.558 229.362 91.5488C241.524 91.1569 251.063 80.9357 251.063 68.7688Z" fill="#2F2F5E"/>
<path d="M344.981 99.5847C337.876 99.5847 332.118 93.8263 332.118 86.7217V60.0275C332.118 46.6113 325.479 39.834 315.244 39.834C304.041 39.834 293.667 48.1327 293.667 67.9113V99.5847C286.563 99.5847 280.804 93.8263 280.804 86.7217V30.982C287.831 30.982 293.529 36.6805 293.529 43.7067V44.8132C298.093 32.9184 308.052 28.769 318.149 28.769C334.746 28.769 344.981 39.2807 344.981 58.6444V99.5847Z" fill="#2F2F5E"/>
<path d="M419.665 89.3494C414.824 96.9566 405.695 101.798 394.354 101.798C374.299 101.798 359.361 86.5832 359.361 65.2832C359.361 43.9832 374.299 28.7689 393.939 28.7689C405.419 28.7689 414.686 34.0247 419.527 42.7384V0C426.631 0 432.39 5.75838 432.39 12.863V99.5845H429.9C424.248 99.5845 419.665 95.0018 419.665 89.3494ZM396.567 90.7326C396.862 90.7326 397.157 90.728 397.452 90.7187C409.817 90.3269 419.527 79.935 419.527 67.5653V66.8046C419.527 50.7604 409.845 39.8338 396.014 39.8338C382.182 39.8338 372.777 50.6221 372.777 65.2832C372.777 79.9442 382.459 90.7326 396.567 90.7326Z" fill="#2F2F5E"/>
<path d="M446.912 79.8061C446.912 65.4217 460.052 57.123 478.724 57.123H498.088C498.088 46.1963 490.481 39.4191 478.586 39.4191C469.734 39.4191 462.68 43.2918 457.286 49.5158C452.505 44.5735 453.8 36.3854 459.905 33.2227C465.437 30.3596 471.772 28.769 478.862 28.769C497.811 28.769 510.536 39.5574 510.536 56.708V99.5847H507.493C502.528 99.5847 498.503 95.5598 498.503 90.5944C492.97 97.51 483.98 101.798 473.192 101.798C457.562 101.798 446.912 92.6691 446.912 79.8061ZM498.088 68.7688V66.6665H480.107C468.627 66.6665 460.19 70.8158 460.19 79.3912C460.19 86.86 466.276 91.5626 475.405 91.5626C475.732 91.5626 476.059 91.558 476.387 91.5488C488.549 91.1569 498.088 80.9357 498.088 68.7688Z" fill="#2F2F5E"/>
<path d="M524.09 99.5841C524.09 92.8068 526.538 86.2555 530.982 81.1379L565.306 41.6315H525.473C525.473 35.7486 530.24 30.9814 536.123 30.9814H580.936C580.936 37.8509 578.46 44.4899 573.965 49.6812L539.857 89.0724H582.319C582.319 94.8769 577.612 99.5841 571.807 99.5841H524.09Z" fill="#2F2F5E"/>
<path d="M592.964 79.8061C592.964 65.4217 606.104 57.123 624.776 57.123H644.139C644.139 46.1963 636.532 39.4191 624.637 39.4191C615.785 39.4191 608.732 43.2918 603.337 49.5158C598.556 44.5735 599.852 36.3854 605.956 33.2227C611.489 30.3596 617.823 28.769 624.914 28.769C643.863 28.769 656.587 39.5574 656.587 56.708V99.5847H653.544C648.579 99.5847 644.554 95.5598 644.554 90.5944C639.022 97.51 630.032 101.798 619.243 101.798C603.614 101.798 592.964 92.6691 592.964 79.8061ZM644.139 68.7688V66.6665H626.159C614.679 66.6665 606.242 70.8158 606.242 79.3912C606.242 86.86 612.328 91.5626 621.456 91.5626C621.784 91.5626 622.111 91.558 622.438 91.5488C634.6 91.1569 644.139 80.9357 644.139 68.7688Z" fill="#2F2F5E"/>
<path d="M0.00012207 95.632C0.00012207 111.635 13.0429 121.718 32.6001 121.718C33.3055 121.718 34.004 121.704 34.7025 121.683C60.7603 120.846 81.2097 98.9446 81.2097 72.8727V68.3706H42.683C18.0843 68.3706 0.00012207 77.2641 0.00012207 95.6389V95.632Z" fill="#544B99"/>
<path d="M6.10352e-05 34.9339C6.10352e-05 18.9311 13.0428 8.84814 32.6001 8.84814C33.3054 8.84814 34.0039 8.86198 34.7024 8.88272C60.7603 9.71951 81.2096 31.6213 81.2096 57.6932V62.1952H42.683C18.0774 62.1952 6.10352e-05 53.3087 6.10352e-05 34.9339Z" fill="#544B99"/>
<path d="M168.076 34.9339C168.076 18.9311 155.033 8.84814 135.476 8.84814C134.77 8.84814 134.072 8.86198 133.373 8.88272C107.316 9.71951 86.8663 31.6213 86.8663 57.6932V62.1952H125.393C149.992 62.1952 168.076 53.3017 168.076 34.9269V34.9339Z" fill="#544B99"/>
<path d="M168.076 95.632C168.076 111.635 155.033 121.718 135.476 121.718C134.77 121.718 134.072 121.704 133.373 121.683C107.316 120.846 86.8663 98.9446 86.8663 72.8727V68.3706H125.393C149.992 68.3706 168.076 77.2641 168.076 95.6389V95.632Z" fill="#544B99"/>
</svg>
