<svg width="219" height="250" viewBox="0 0 219 250" fill="none" xmlns="http://www.w3.org/2000/svg">
<g clip-path="url(#clip0_169_1447)">
<path d="M60.8096 172.587C60.8096 191.578 76.3458 203.534 99.6435 203.534C100.482 203.534 101.314 203.521 102.146 203.494C133.185 202.5 157.541 176.513 157.541 145.579V140.234H111.652C82.35 140.234 60.8163 150.784 60.8163 172.587H60.8096Z" fill="#544B99"/>
<path d="M-6.10352e-05 174.243C-6.10352e-05 125.134 45.0309 96.8062 109.026 96.8062H175.385C175.385 59.5001 149.311 36.3645 108.547 36.3645C78.2135 36.3645 54.0372 49.5867 35.5521 70.8325C19.1706 53.9499 23.5971 26.0002 44.5317 15.2182C63.4893 5.44406 85.2094 0 109.499 0C174.439 0 218.046 36.8287 218.046 95.3871V241.767H207.615C190.601 241.767 176.802 228.027 176.802 211.072C157.845 234.678 127.032 249.319 90.0553 249.319C36.4974 249.319 -6.10352e-05 218.154 -6.10352e-05 174.243ZM175.385 136.559V129.384H113.766C74.4193 129.384 45.5036 143.548 45.5036 172.824C45.5036 198.32 66.3583 214.381 97.6437 214.381C98.7686 214.381 99.8869 214.361 101.005 214.328C142.681 212.988 175.385 178.096 175.385 136.559Z" fill="#2F2F5E"/>
</g>
<defs>
<clipPath id="clip0_169_1447">
<rect width="218.046" height="249.319" fill="white"/>
</clipPath>
</defs>
</svg>
