<svg width="171" height="74" viewBox="0 0 171 74" fill="none" xmlns="http://www.w3.org/2000/svg">
<path d="M19.6772 73.5H0.5L25.4087 0.5H49.1639L74.0726 73.5H54.8954L37.5567 18.8926H36.9799L19.6772 73.5ZM17.1178 44.7705H57.2025V58.1729H17.1178V44.7705Z" fill="#544B99"/>
<path d="M48.5623 14.8291V0.5H118.573V14.8291H96.188V73.5H78.5969V14.8291H48.5623Z" fill="#544B99"/>
<path d="M113.077 73.5V0.5H143.573C149.1 0.5 153.87 1.56934 157.883 3.70801C161.921 5.82292 165.033 8.78141 167.22 12.5835C169.407 16.3618 170.5 20.758 170.5 25.772C170.5 30.8097 169.383 35.2178 167.148 38.9961C164.937 42.7507 161.777 45.6616 157.667 47.729C153.558 49.7964 148.679 50.8301 143.032 50.8301H124.215V36.9287H139.716C142.407 36.9287 144.654 36.4653 146.456 35.5386C148.283 34.6118 149.665 33.3167 150.602 31.6533C151.539 29.9661 152.008 28.0057 152.008 25.772C152.008 23.5145 151.539 21.5659 150.602 19.9263C149.665 18.2629 148.283 16.9797 146.456 16.0767C144.63 15.1737 142.383 14.7222 139.716 14.7222H130.92V73.5H113.077Z" fill="#544B99"/>
</svg>
