<svg width="42" height="42" viewBox="0 0 42 42" fill="none" xmlns="http://www.w3.org/2000/svg">
<rect width="42" height="42" rx="21" fill="#F4F5FA"/>
<path d="M21 10.5C18.38 10.5 16.25 12.63 16.25 15.25C16.25 17.82 18.26 19.9 20.88 19.99C20.96 19.98 21.04 19.98 21.1 19.99C21.12 19.99 21.13 19.99 21.15 19.99C21.16 19.99 21.16 19.99 21.17 19.99C23.73 19.9 25.74 17.82 25.75 15.25C25.75 12.63 23.62 10.5 21 10.5Z" fill="#D2D3D6"/>
<path d="M26.0809 22.6499C23.2909 20.7899 18.7409 20.7899 15.9309 22.6499C14.6609 23.4999 13.9609 24.6499 13.9609 25.8799C13.9609 27.1099 14.6609 28.2499 15.9209 29.0899C17.3209 30.0299 19.1609 30.4999 21.0009 30.4999C22.8409 30.4999 24.6809 30.0299 26.0809 29.0899C27.3409 28.2399 28.0409 27.0999 28.0409 25.8599C28.0309 24.6299 27.3409 23.4899 26.0809 22.6499Z" fill="#D2D3D6"/>
</svg>
