<svg width="20" height="20" viewBox="0 0 20 20" fill="none" xmlns="http://www.w3.org/2000/svg">
<path d="M12.4993 1.66602V9.99935C12.4993 10.916 11.7493 11.666 10.8327 11.666H1.66602V4.99935C1.66602 3.15768 3.15768 1.66602 4.99935 1.66602H12.4993Z" stroke="#7631FF" stroke-width="1.5" stroke-linecap="round" stroke-linejoin="round"/>
<path d="M18.3327 11.666V14.166C18.3327 15.5493 17.216 16.666 15.8327 16.666H14.9993C14.9993 15.7493 14.2493 14.9993 13.3327 14.9993C12.416 14.9993 11.666 15.7493 11.666 16.666H8.33268C8.33268 15.7493 7.58268 14.9993 6.66602 14.9993C5.74935 14.9993 4.99935 15.7493 4.99935 16.666H4.16602C2.78268 16.666 1.66602 15.5493 1.66602 14.166V11.666H10.8327C11.7493 11.666 12.4993 10.916 12.4993 9.99935V4.16602H14.0327C14.6327 4.16602 15.1827 4.49102 15.4827 5.00769L16.9077 7.49935H15.8327C15.3743 7.49935 14.9993 7.87435 14.9993 8.33268V10.8327C14.9993 11.291 15.3743 11.666 15.8327 11.666H18.3327Z" stroke="#7631FF" stroke-width="1.5" stroke-linecap="round" stroke-linejoin="round"/>
<path d="M6.66667 18.3333C7.58714 18.3333 8.33333 17.5871 8.33333 16.6667C8.33333 15.7462 7.58714 15 6.66667 15C5.74619 15 5 15.7462 5 16.6667C5 17.5871 5.74619 18.3333 6.66667 18.3333Z" stroke="#7631FF" stroke-width="1.5" stroke-linecap="round" stroke-linejoin="round"/>
<path d="M13.3327 18.3333C14.2532 18.3333 14.9993 17.5871 14.9993 16.6667C14.9993 15.7462 14.2532 15 13.3327 15C12.4122 15 11.666 15.7462 11.666 16.6667C11.666 17.5871 12.4122 18.3333 13.3327 18.3333Z" stroke="#7631FF" stroke-width="1.5" stroke-linecap="round" stroke-linejoin="round"/>
<path d="M18.3333 10V11.6667H15.8333C15.375 11.6667 15 11.2917 15 10.8333V8.33333C15 7.875 15.375 7.5 15.8333 7.5H16.9083L18.3333 10Z" stroke="#7631FF" stroke-width="1.5" stroke-linecap="round" stroke-linejoin="round"/>
</svg>
