<svg width="20" height="20" viewBox="0 0 20 20" fill="none" xmlns="http://www.w3.org/2000/svg">
<path d="M3.25 14.059V8.46484H16.75V14.1098C16.75 15.2577 16.3923 16.1065 15.8214 16.6683C15.249 17.2315 14.383 17.584 13.219 17.584H6.77278C5.62708 17.584 4.76301 17.2268 4.1872 16.6528C3.6118 16.0793 3.25 15.2153 3.25 14.059Z" stroke="#A5A7AD" stroke-width="1.5"/>
<path d="M13.3755 15.076C12.9968 15.0677 12.6922 14.751 12.6922 14.3677C12.684 13.9843 12.9886 13.6685 13.3673 13.6602H13.3755C13.7625 13.6602 14.0753 13.9768 14.0753 14.3677C14.0753 14.7593 13.7625 15.076 13.3755 15.076V15.076Z" fill="#A5A7AD"/>
<path d="M10.0179 12.0083C9.63921 12.0258 9.32637 11.725 9.30991 11.3425C9.30991 10.9592 9.60628 10.6425 9.98499 10.625C10.3555 10.625 10.6601 10.9175 10.6683 11.2917C10.6848 11.6758 10.3884 11.9925 10.0179 12.0083V12.0083Z" fill="#A5A7AD"/>
<path d="M10.0179 15.0357C9.63921 15.0532 9.32637 14.7523 9.30991 14.369C9.30991 13.9857 9.60628 13.6698 9.98499 13.6523C10.3555 13.6523 10.6601 13.9448 10.6683 14.3198C10.6848 14.7032 10.3884 15.0198 10.0179 15.0357V15.0357Z" fill="#A5A7AD"/>
<path d="M6.63248 12.0083C6.25378 12.0258 5.94093 11.725 5.92447 11.3425C5.92447 10.9592 6.22085 10.6425 6.59955 10.625C6.97002 10.625 7.27463 10.9175 7.28287 11.2917C7.29933 11.6758 7.00295 11.9925 6.63248 12.0083V12.0083Z" fill="#A5A7AD"/>
<path d="M6.62598 15.0357C6.24728 15.0532 5.93443 14.7523 5.91797 14.369C5.91797 13.9857 6.21435 13.6698 6.59305 13.6523C6.96352 13.6523 7.26813 13.9448 7.27637 14.3198C7.29283 14.7032 6.99645 15.0198 6.62598 15.0357V15.0357Z" fill="#A5A7AD"/>
<path d="M12.7018 11.3367C12.7018 10.9534 12.9982 10.6451 13.3769 10.6367C13.7474 10.6367 14.0437 10.9359 14.0602 11.3034C14.0684 11.6867 13.7721 12.0034 13.4016 12.0109C13.0229 12.0192 12.71 11.7276 12.7018 11.3451V11.3367Z" fill="#A5A7AD"/>
<path d="M6.91972 5.49297C7.28196 5.49297 7.55363 5.2188 7.55363 4.8513V2.31047C7.55363 1.94297 7.28196 1.66797 6.91972 1.66797C6.55748 1.66797 6.2858 1.94297 6.2858 2.31047V4.8513C6.2858 5.2188 6.55748 5.49297 6.91972 5.49297" fill="#A5A7AD"/>
<path d="M13.0786 5.49297C13.4326 5.49297 13.7125 5.2188 13.7125 4.8513V2.31047C13.7125 1.94297 13.4326 1.66797 13.0786 1.66797C12.7164 1.66797 12.4447 1.94297 12.4447 2.31047V4.8513C12.4447 5.2188 12.7164 5.49297 13.0786 5.49297" fill="#A5A7AD"/>
<path d="M2.50327 7.71599C2.51397 7.22682 2.55513 6.25599 2.63252 5.94349C3.02769 4.18599 4.36962 3.06932 6.28784 2.91016H13.7137C15.6155 3.07766 16.9739 4.20182 17.3691 5.94349C17.4456 6.24766 17.4868 7.22599 17.4975 7.71599H2.50327Z" fill="#A5A7AD"/>
</svg>
