<svg width="16" height="15" viewBox="0 0 16 15" fill="none" xmlns="http://www.w3.org/2000/svg">
<path d="M10.8286 10.1987L10.5603 9.41395C10.6781 9.27116 10.7855 9.11774 10.8796 8.95652C10.9738 8.7953 11.0548 8.62627 11.1215 8.45326L11.9336 8.30721C11.9949 8.29615 12.0514 8.26658 12.0956 8.22242C12.1398 8.17827 12.1697 8.12162 12.1812 8.06003L12.1864 8.03403C12.2823 7.52729 12.2864 7.00739 12.1985 6.49945L12.1939 6.47322C12.1832 6.41162 12.1542 6.35476 12.1108 6.31012C12.0673 6.26547 12.0115 6.23515 11.9505 6.22314L11.1397 6.06695C11.0117 5.71625 10.8296 5.3917 10.597 5.10219L10.8802 4.31925C10.9015 4.26033 10.9045 4.1963 10.8887 4.13569C10.873 4.07507 10.8393 4.02073 10.7922 3.97989L10.7723 3.96257C10.3883 3.63044 9.93631 3.36327 9.46097 3.18738L9.43628 3.17837C9.37786 3.15681 9.31428 3.15366 9.25399 3.16934C9.19369 3.18502 9.13954 3.21879 9.09872 3.26617L8.5538 3.89885C8.19158 3.83682 7.82163 3.83492 7.45862 3.89321L6.92442 3.25208C6.88443 3.20422 6.8309 3.16978 6.77096 3.15331C6.71101 3.13685 6.64748 3.13914 6.58881 3.1599L6.56376 3.16858C6.08005 3.33893 5.63061 3.5955 5.23694 3.92602L5.2169 3.94324C5.1191 4.02518 5.08165 4.15957 5.12271 4.28111L5.39474 5.07472C5.2779 5.21584 5.17232 5.36809 5.07959 5.52682C4.98637 5.68638 4.90553 5.85326 4.84031 6.02377L4.01871 6.17091C3.95743 6.18197 3.90092 6.21154 3.85669 6.2557C3.81247 6.29985 3.78262 6.3565 3.77112 6.41809L3.76592 6.44409C3.67051 6.95118 3.6658 7.46828 3.75376 7.97867L3.75841 8.0049C3.76909 8.0665 3.79806 8.12336 3.84151 8.168C3.88495 8.21265 3.94083 8.24297 4.00178 8.25498L4.81854 8.41244C4.94537 8.76133 5.12583 9.0849 5.35638 9.37212L5.07209 10.1589C5.05081 10.2178 5.04783 10.2818 5.06355 10.3424C5.07927 10.4031 5.11295 10.4574 5.1601 10.4982L5.17995 10.5155C5.56771 10.8504 6.01179 11.1129 6.49131 11.2907L6.51601 11.2997C6.57443 11.3213 6.63801 11.3245 6.6983 11.3088C6.75859 11.2931 6.81275 11.2593 6.85357 11.212L7.39572 10.5821C7.76001 10.6458 8.13236 10.6483 8.49765 10.5895L9.02787 11.226C9.06786 11.2739 9.12138 11.3083 9.18133 11.3248C9.24128 11.3413 9.30481 11.339 9.36348 11.3182L9.38852 11.3095C9.87507 11.1376 10.3214 10.8827 10.7153 10.5521L10.7354 10.5349C10.8322 10.4546 10.8697 10.3202 10.8286 10.1987ZM10.4786 8.20517C10.4259 8.34285 10.3614 8.478 10.2861 8.60681C10.2109 8.73562 10.1249 8.8581 10.031 8.97139L9.78188 9.27247L10.0878 10.1677C9.8677 10.3293 9.62991 10.4648 9.37909 10.5717L8.77344 9.8458L8.3892 9.90713C8.09693 9.95349 7.80278 9.95179 7.51282 9.90113L7.12916 9.83421L6.5106 10.5531C6.26213 10.442 6.02696 10.3029 5.80956 10.1387L6.13382 9.2436L5.89246 8.93881C5.70983 8.71011 5.56604 8.45293 5.46524 8.17533L5.332 7.807L4.4005 7.62755C4.37147 7.35436 4.37426 7.07986 4.40647 6.8082L5.3423 6.64027L5.48289 6.27616C5.53543 6.14064 5.59947 6.00632 5.67327 5.88C5.74755 5.75285 5.83172 5.63155 5.92468 5.51991L6.17249 5.21918L5.86293 4.31507C6.08284 4.15325 6.32021 4.01854 6.5716 3.91111L7.18074 4.64238L7.56546 4.58022C7.85559 4.53372 8.14892 4.53493 8.43641 4.58413L8.81842 4.65007L9.43794 3.92956C9.68524 4.03997 9.92194 4.17989 10.139 4.34397L9.8157 5.23735L10.0605 5.54195C10.2448 5.77162 10.3902 6.02978 10.4922 6.30918L10.6259 6.67668L11.551 6.8557C11.58 7.1289 11.5772 7.4034 11.545 7.67505L10.6187 7.84189L10.4786 8.20517ZM8.879 5.69546C8.07734 5.22157 7.04486 5.49226 6.57297 6.30004C6.10108 7.10781 6.36842 8.14686 7.17009 8.62075C7.97175 9.09464 9.00423 8.82395 9.47612 8.01618C9.94802 7.2084 9.68067 6.16935 8.879 5.69546ZM8.29325 8.20243C8.157 8.23836 8.01508 8.24682 7.87564 8.22734C7.73621 8.20785 7.60202 8.16079 7.4808 8.08888C7.2342 7.9431 7.05924 7.70887 6.98683 7.43016C6.95134 7.29304 6.94314 7.15018 6.9627 7.00977C6.98227 6.86937 7.0292 6.73421 7.10082 6.61206C7.24598 6.36358 7.47889 6.1871 7.75584 6.11378C8.03361 6.04096 8.32169 6.08156 8.56829 6.22733C8.8149 6.37311 8.99034 6.60651 9.06226 6.88605C9.09775 7.02317 9.10595 7.16604 9.08639 7.30644C9.06683 7.44684 9.01989 7.582 8.94828 7.70415C8.80312 7.95263 8.5702 8.12912 8.29325 8.20243Z" fill="#7631FF"/>
<path d="M15.1513 7.24997C15.1513 5.53838 14.5453 3.88275 13.4418 2.5799C12.3384 1.27704 10.8096 0.412142 9.12974 0.14026C7.44984 -0.131621 5.72859 0.207289 4.27457 1.09624C2.82054 1.98518 1.72883 3.36603 1.19513 4.99125L2.02389 5.26663C2.49252 3.83957 3.45113 2.62707 4.72788 1.84651C6.00462 1.06595 7.51601 0.768356 8.9911 1.00709C10.4662 1.24582 11.8085 2.00527 12.7774 3.14928C13.7464 4.29329 14.2785 5.74706 14.2785 7.24997H15.1513Z" fill="#7631FF"/>
<path d="M0.833956 7.29894C0.845541 9.01049 1.46279 10.6619 2.57504 11.9572C3.68729 13.2525 5.22182 14.1069 6.90352 14.3672C8.58523 14.6276 10.3041 14.2769 11.7521 13.378C13.2001 12.4792 14.2824 11.0909 14.8051 9.46203L13.9745 9.19232C13.5156 10.6226 12.5652 11.8416 11.2937 12.6309C10.0223 13.4202 8.51296 13.7281 7.03629 13.4995C5.55963 13.2709 4.21219 12.5206 3.23555 11.3833C2.2589 10.2459 1.71691 8.79584 1.70674 7.29296L0.833956 7.29894Z" fill="#7631FF"/>
<path d="M14.7053 7.74549L15.427 9.93108L13.1845 9.46699L14.7053 7.74549Z" fill="#7631FF"/>
<path d="M1.28046 6.85555L0.663629 4.6377L2.88145 5.20927L1.28046 6.85555Z" fill="#7631FF"/>
</svg>
