<svg width="20" height="20" viewBox="0 0 20 20" fill="none" xmlns="http://www.w3.org/2000/svg">
<path d="M3.25 14.0583V8.46411H16.75V14.1091C16.75 15.257 16.3923 16.1058 15.8214 16.6675C15.249 17.2307 14.383 17.5833 13.219 17.5833H6.77278C5.62708 17.5833 4.76301 17.226 4.1872 16.6521C3.6118 16.0785 3.25 15.2146 3.25 14.0583Z" stroke="#544B99" stroke-width="1.5"/>
<path d="M13.3756 15.075C12.9969 15.0667 12.6922 14.75 12.6922 14.3667C12.684 13.9833 12.9886 13.6675 13.3673 13.6592H13.3756C13.7625 13.6592 14.0753 13.9758 14.0753 14.3667C14.0753 14.7583 13.7625 15.075 13.3756 15.075Z" fill="#544B99"/>
<path d="M10.0179 12.0083C9.63918 12.0258 9.32634 11.725 9.30988 11.3425C9.30988 10.9592 9.60625 10.6425 9.98496 10.625C10.3554 10.625 10.66 10.9175 10.6683 11.2917C10.6847 11.6758 10.3884 11.9925 10.0179 12.0083Z" fill="#544B99"/>
<path d="M10.0179 15.0332C9.63918 15.0507 9.32634 14.7499 9.30988 14.3666C9.30988 13.9832 9.60625 13.6674 9.98496 13.6499C10.3554 13.6499 10.66 13.9424 10.6683 14.3174C10.6847 14.7007 10.3884 15.0174 10.0179 15.0332Z" fill="#544B99"/>
<path d="M6.63251 12.0083C6.25381 12.0258 5.94096 11.725 5.9245 11.3425C5.9245 10.9592 6.22088 10.6425 6.59958 10.625C6.97005 10.625 7.27466 10.9175 7.2829 11.2917C7.29936 11.6758 7.00298 11.9925 6.63251 12.0083Z" fill="#544B99"/>
<path d="M6.62598 15.0332C6.24728 15.0507 5.93443 14.7499 5.91797 14.3666C5.91797 13.9832 6.21435 13.6674 6.59305 13.6499C6.96352 13.6499 7.26813 13.9424 7.27637 14.3174C7.29283 14.7007 6.99645 15.0174 6.62598 15.0332Z" fill="#544B99"/>
<path d="M12.7018 11.334C12.7018 10.9507 12.9982 10.6424 13.3769 10.634C13.7474 10.634 14.0438 10.9332 14.0602 11.3007C14.0685 11.684 13.7721 12.0007 13.4016 12.0082C13.0229 12.0165 12.7101 11.7249 12.7018 11.3424V11.334Z" fill="#544B99"/>
<path d="M6.91975 5.49163C7.28199 5.49163 7.55367 5.21746 7.55367 4.84996V2.30913C7.55367 1.94163 7.28199 1.66663 6.91975 1.66663C6.55751 1.66663 6.28583 1.94163 6.28583 2.30913V4.84996C6.28583 5.21746 6.55751 5.49163 6.91975 5.49163Z" fill="#544B99"/>
<path d="M13.0786 5.49163C13.4326 5.49163 13.7125 5.21746 13.7125 4.84996V2.30913C13.7125 1.94163 13.4326 1.66663 13.0786 1.66663C12.7163 1.66663 12.4446 1.94163 12.4446 2.30913V4.84996C12.4446 5.21746 12.7163 5.49163 13.0786 5.49163Z" fill="#544B99"/>
<path d="M2.50323 7.71428C2.51394 7.22511 2.5551 6.25428 2.63249 5.94178C3.02766 4.18428 4.36959 3.06761 6.28781 2.90845H13.7137C15.6155 3.07595 16.9739 4.20011 17.369 5.94178C17.4456 6.24595 17.4868 7.22428 17.4975 7.71428H2.50323Z" fill="#544B99"/>
</svg>
