<svg width="56" height="56" viewBox="0 0 56 56" fill="none" xmlns="http://www.w3.org/2000/svg">
<path opacity="0.4" d="M38.11 51.3332H17.8878C9.9795 51.3332 4.66675 45.7866 4.66675 37.5298V18.4722C4.66675 10.2154 9.9795 4.6665 17.8878 4.6665H38.1123C46.0207 4.6665 51.3334 10.2154 51.3334 18.4722V37.5298C51.3334 45.7866 46.0207 51.3332 38.11 51.3332Z" fill="#5570F1"/>
<path fill-rule="evenodd" clip-rule="evenodd" d="M26.2385 20.2416C26.2385 23.4383 23.6368 26.0399 20.4401 26.0399C17.2411 26.0399 14.6418 23.4383 14.6418 20.2416C14.6418 17.0449 17.2411 14.4409 20.4401 14.4409C23.6368 14.4409 26.2385 17.0449 26.2385 20.2416ZM45.2677 32.871C45.8114 33.3983 46.2011 34.0003 46.4577 34.642C47.2347 36.5833 46.8311 38.9167 46.0004 40.8393C45.0157 43.1283 43.1304 44.8573 40.7551 45.6133C39.7004 45.9517 38.5944 46.0963 37.4907 46.0963H17.9351C15.9891 46.0963 14.2671 45.6437 12.8554 44.7943C11.9711 44.2623 11.8147 43.0373 12.4704 42.2393C13.5671 40.9093 14.6497 39.5747 15.7417 38.2283C17.8231 35.6523 19.2254 34.9057 20.7841 35.5613C21.4164 35.832 22.0511 36.2403 22.7044 36.6697C24.4451 37.8223 26.8647 39.4043 30.0521 37.687C32.2308 36.4957 33.4954 34.4571 34.5962 32.6828L34.6184 32.647C34.6925 32.5282 34.7659 32.4095 34.8392 32.2912C35.2135 31.6864 35.5821 31.0907 35.9997 30.5423C36.5177 29.8633 38.4404 27.74 40.9254 29.252C42.5097 30.204 43.8421 31.492 45.2677 32.871Z" fill="#5570F1"/>
</svg>
