<svg width="24" height="24" viewBox="0 0 24 24" fill="none" xmlns="http://www.w3.org/2000/svg">
<path d="M18.75 7.48486C16.2525 7.23736 13.74 7.10986 11.235 7.10986C9.75 7.10986 8.265 7.18486 6.78 7.33486L5.25 7.48486" stroke="#FF4E4F" stroke-width="1.5" stroke-linecap="round" stroke-linejoin="round"/>
<path d="M9.37646 6.72701L9.54147 5.74451C9.66147 5.03201 9.75146 4.49951 11.019 4.49951H12.984C14.2515 4.49951 14.349 5.06201 14.4615 5.75201L14.6265 6.72701" stroke="#FF4E4F" stroke-width="1.5" stroke-linecap="round" stroke-linejoin="round"/>
<path d="M17.1378 9.85449L16.6503 17.407C16.5678 18.5845 16.5003 19.4995 14.4078 19.4995H9.59279C7.50029 19.4995 7.43279 18.5845 7.35029 17.407L6.86279 9.85449" stroke="#FF4E4F" stroke-width="1.5" stroke-linecap="round" stroke-linejoin="round"/>
<path d="M10.7476 15.375H13.2451" stroke="#FF4E4F" stroke-width="1.5" stroke-linecap="round" stroke-linejoin="round"/>
<path d="M10.1235 12.3745H13.8735" stroke="#FF4E4F" stroke-width="1.5" stroke-linecap="round" stroke-linejoin="round"/>
</svg>
