<svg width="25" height="24" viewBox="0 0 25 24" fill="none" xmlns="http://www.w3.org/2000/svg">
<g clip-path="url(#clip0_2_68)">
<path d="M22.6987 4.13794H2.29352C1.3008 4.13794 0.496094 4.94264 0.496094 5.93536V18.0647C0.496094 19.0574 1.3008 19.8621 2.29352 19.8621H22.6987C23.6913 19.8621 24.4961 19.0574 24.4961 18.0647V5.93536C24.4961 4.94264 23.6914 4.13794 22.6987 4.13794Z" fill="#41479B"/>
<path d="M24.4712 5.63821C24.3295 4.787 23.5901 4.13788 22.6987 4.13788H22.231L14.5651 9.16039V4.13793H10.4271V9.16044L2.76119 4.13793H2.29352C1.40209 4.13793 0.662641 4.787 0.520984 5.63825L7.07308 9.93107H0.496094V14.069H7.07308L0.520984 18.3617C0.662641 19.2129 1.40209 19.8621 2.29352 19.8621H2.76119L10.4271 14.8395V19.8621H14.5651V14.8395L22.231 19.8621H22.6987C23.5901 19.8621 24.3295 19.213 24.4712 18.3617L17.9191 14.0689H24.4961V9.93097H17.9191L24.4712 5.63821Z" fill="#F5F5F5"/>
<path d="M13.7375 4.13794H11.2547V10.7586H0.496094V13.2414H11.2547V19.8621H13.7375V13.2414H24.4961V10.7586H13.7375V4.13794Z" fill="#FF4B55"/>
<path d="M1.65851 19.7462L10.4046 14.069H8.88452L0.928711 19.2333C1.12338 19.4605 1.37355 19.6385 1.65851 19.7462Z" fill="#FF4B55"/>
<path d="M16.733 14.069H15.2129L23.684 19.5676C23.921 19.412 24.1188 19.2017 24.2599 18.9548L16.733 14.069Z" fill="#FF4B55"/>
<path d="M0.685547 5.13166L8.07914 9.93105H9.5992L1.22114 4.49261C0.996188 4.66005 0.812109 4.87896 0.685547 5.13166Z" fill="#FF4B55"/>
<path d="M16.0855 9.93106L24.0559 4.75723C23.8591 4.53078 23.6069 4.35378 23.32 4.24817L14.5654 9.93106H16.0855Z" fill="#FF4B55"/>
</g>
<defs>
<clipPath id="clip0_2_68">
<rect width="24" height="24" fill="white" transform="translate(0.496094)"/>
</clipPath>
</defs>
</svg>
