<svg width="20" height="20" viewBox="0 0 20 20" fill="none" xmlns="http://www.w3.org/2000/svg">
<g clip-path="url(#clip0_329_31832)">
<path d="M17.725 7.65C17.4833 7.26666 17.225 6.90833 16.9583 6.575C16.65 6.18333 16.0666 6.15 15.7166 6.5L13.2166 9C13.4 9.55 13.4333 10.1833 13.2666 10.8417C12.975 12.0167 12.025 12.9667 10.85 13.2583C10.1916 13.425 9.55831 13.3917 9.00831 13.2083C9.00831 13.2083 7.81664 14.4 6.95831 15.2583C6.54164 15.675 6.67498 16.4083 7.23331 16.625C8.12498 16.9667 9.04998 17.1417 9.99998 17.1417C11.4833 17.1417 12.925 16.7083 14.2416 15.9C15.5833 15.0667 16.7916 13.8417 17.7666 12.2833C18.5583 11.025 18.5166 8.90833 17.725 7.65Z" fill="#7631FF"/>
<path d="M11.6833 8.31667L8.31664 11.6833C7.89164 11.25 7.61664 10.65 7.61664 10C7.61664 8.69167 8.6833 7.61667 9.99997 7.61667C10.65 7.61667 11.25 7.89167 11.6833 8.31667Z" fill="#7631FF"/>
<path d="M15.2084 4.79167L12.3834 7.61667C11.775 7 10.9334 6.63334 10 6.63334C8.13335 6.63334 6.63335 8.14167 6.63335 10C6.63335 10.9333 7.00835 11.775 7.61669 12.3833L4.80002 15.2083H4.79169C3.86669 14.4583 3.01669 13.5 2.29169 12.3667C1.45835 11.0583 1.45835 8.93334 2.29169 7.625C3.25835 6.10834 4.44169 4.91667 5.75835 4.1C7.07502 3.3 8.51669 2.85834 10 2.85834C11.8584 2.85834 13.6584 3.54167 15.2084 4.79167Z" fill="#7631FF"/>
<path d="M12.3833 10C12.3833 11.3083 11.3167 12.3833 10 12.3833C9.95 12.3833 9.90834 12.3833 9.85834 12.3667L12.3667 9.85834C12.3833 9.90834 12.3833 9.95 12.3833 10Z" fill="#7631FF"/>
<path d="M18.1417 1.85834C17.8917 1.60834 17.4833 1.60834 17.2333 1.85834L1.85834 17.2417C1.60834 17.4917 1.60834 17.9 1.85834 18.15C1.98334 18.2667 2.14167 18.3333 2.30834 18.3333C2.475 18.3333 2.63334 18.2667 2.75834 18.1417L18.1417 2.75834C18.4 2.50834 18.4 2.10834 18.1417 1.85834Z" fill="#7631FF"/>
</g>
<defs>
<clipPath id="clip0_329_31832">
<rect width="20" height="20" fill="white"/>
</clipPath>
</defs>
</svg>
