<svg width="22" height="16" viewBox="0 0 22 16" fill="none" xmlns="http://www.w3.org/2000/svg">
<rect x="0.25" y="0.25" width="21.5" height="15.5" rx="1.75" fill="white" stroke="#F5F5F5" stroke-width="0.5"/>
<mask id="mask0_441_11265" style="mask-type:alpha" maskUnits="userSpaceOnUse" x="0" y="0" width="22" height="16">
<rect x="0.25" y="0.25" width="21.5" height="15.5" rx="1.75" fill="white" stroke="white" stroke-width="0.5"/>
</mask>
<g mask="url(#mask0_441_11265)">
<path fill-rule="evenodd" clip-rule="evenodd" d="M0 5.33333H22V0H0V5.33333Z" fill="#04AAC8"/>
<path fill-rule="evenodd" clip-rule="evenodd" d="M0 16H22V10.6666H0V16Z" fill="#23C840"/>
<path fill-rule="evenodd" clip-rule="evenodd" d="M3.66664 4.26665C3.98979 4.26665 4.29016 4.16734 4.53991 3.99705C4.51097 3.999 4.48178 3.99998 4.45236 3.99998C3.72913 3.99998 3.14283 3.40303 3.14283 2.66665C3.14283 1.93027 3.72913 1.33332 4.45236 1.33332C4.48178 1.33332 4.51097 1.3343 4.53991 1.33625C4.29016 1.16596 3.98979 1.06665 3.66664 1.06665C2.79877 1.06665 2.09521 1.78299 2.09521 2.66665C2.09521 3.55031 2.79877 4.26665 3.66664 4.26665ZM6.28569 3.73332C6.28569 4.02787 6.05117 4.26665 5.76188 4.26665C5.47259 4.26665 5.23807 4.02787 5.23807 3.73332C5.23807 3.43877 5.47259 3.19998 5.76188 3.19998C6.05117 3.19998 6.28569 3.43877 6.28569 3.73332ZM7.85712 2.13332C8.14641 2.13332 8.38093 1.89454 8.38093 1.59998C8.38093 1.30543 8.14641 1.06665 7.85712 1.06665C7.56783 1.06665 7.33331 1.30543 7.33331 1.59998C7.33331 1.89454 7.56783 2.13332 7.85712 2.13332ZM10.4762 1.59998C10.4762 1.89454 10.2416 2.13332 9.95236 2.13332C9.66307 2.13332 9.42855 1.89454 9.42855 1.59998C9.42855 1.30543 9.66307 1.06665 9.95236 1.06665C10.2416 1.06665 10.4762 1.30543 10.4762 1.59998ZM9.95236 4.26665C10.2416 4.26665 10.4762 4.02787 10.4762 3.73332C10.4762 3.43877 10.2416 3.19998 9.95236 3.19998C9.66307 3.19998 9.42855 3.43877 9.42855 3.73332C9.42855 4.02787 9.66307 4.26665 9.95236 4.26665ZM8.38093 3.73332C8.38093 4.02787 8.14641 4.26665 7.85712 4.26665C7.56783 4.26665 7.33331 4.02787 7.33331 3.73332C7.33331 3.43877 7.56783 3.19998 7.85712 3.19998C8.14641 3.19998 8.38093 3.43877 8.38093 3.73332Z" fill="white"/>
</g>
</svg>
