<svg width="22" height="16" viewBox="0 0 22 16" fill="none" xmlns="http://www.w3.org/2000/svg">
<rect width="22" height="16" rx="2" fill="white"/>
<mask id="mask0_441_2444" style="mask-type:alpha" maskUnits="userSpaceOnUse" x="0" y="0" width="22" height="16">
<rect width="22" height="16" rx="2" fill="white"/>
</mask>
<g mask="url(#mask0_441_2444)">
<path fill-rule="evenodd" clip-rule="evenodd" d="M22 0H0V1.06667H22V0ZM22 2.13333H0V3.2H22V2.13333ZM0 4.26667H22V5.33333H0V4.26667ZM22 6.4H0V7.46667H22V6.4ZM0 8.53333H22V9.6H0V8.53333ZM22 10.6667H0V11.7333H22V10.6667ZM0 12.8H22V13.8667H0V12.8ZM22 14.9333H0V16H22V14.9333Z" fill="#D02F44"/>
<rect width="9.42857" height="7.46667" fill="#46467F"/>
<g filter="url(#filter0_d_441_2444)">
<path fill-rule="evenodd" clip-rule="evenodd" d="M2.09523 1.59998C2.09523 1.89454 1.86071 2.13332 1.57142 2.13332C1.28212 2.13332 1.04761 1.89454 1.04761 1.59998C1.04761 1.30543 1.28212 1.06665 1.57142 1.06665C1.86071 1.06665 2.09523 1.30543 2.09523 1.59998ZM4.19046 1.59998C4.19046 1.89454 3.95595 2.13332 3.66666 2.13332C3.37736 2.13332 3.14285 1.89454 3.14285 1.59998C3.14285 1.30543 3.37736 1.06665 3.66666 1.06665C3.95595 1.06665 4.19046 1.30543 4.19046 1.59998ZM5.76189 2.13332C6.05119 2.13332 6.2857 1.89454 6.2857 1.59998C6.2857 1.30543 6.05119 1.06665 5.76189 1.06665C5.4726 1.06665 5.23808 1.30543 5.23808 1.59998C5.23808 1.89454 5.4726 2.13332 5.76189 2.13332ZM8.38094 1.59998C8.38094 1.89454 8.14642 2.13332 7.85713 2.13332C7.56784 2.13332 7.33332 1.89454 7.33332 1.59998C7.33332 1.30543 7.56784 1.06665 7.85713 1.06665C8.14642 1.06665 8.38094 1.30543 8.38094 1.59998ZM2.61904 3.19998C2.90833 3.19998 3.14285 2.9612 3.14285 2.66665C3.14285 2.3721 2.90833 2.13332 2.61904 2.13332C2.32974 2.13332 2.09523 2.3721 2.09523 2.66665C2.09523 2.9612 2.32974 3.19998 2.61904 3.19998ZM5.23808 2.66665C5.23808 2.9612 5.00357 3.19998 4.71427 3.19998C4.42498 3.19998 4.19046 2.9612 4.19046 2.66665C4.19046 2.3721 4.42498 2.13332 4.71427 2.13332C5.00357 2.13332 5.23808 2.3721 5.23808 2.66665ZM6.80951 3.19998C7.0988 3.19998 7.33332 2.9612 7.33332 2.66665C7.33332 2.3721 7.0988 2.13332 6.80951 2.13332C6.52022 2.13332 6.2857 2.3721 6.2857 2.66665C6.2857 2.9612 6.52022 3.19998 6.80951 3.19998ZM8.38094 3.73332C8.38094 4.02787 8.14642 4.26665 7.85713 4.26665C7.56784 4.26665 7.33332 4.02787 7.33332 3.73332C7.33332 3.43877 7.56784 3.19998 7.85713 3.19998C8.14642 3.19998 8.38094 3.43877 8.38094 3.73332ZM5.76189 4.26665C6.05119 4.26665 6.2857 4.02787 6.2857 3.73332C6.2857 3.43877 6.05119 3.19998 5.76189 3.19998C5.4726 3.19998 5.23808 3.43877 5.23808 3.73332C5.23808 4.02787 5.4726 4.26665 5.76189 4.26665ZM4.19046 3.73332C4.19046 4.02787 3.95595 4.26665 3.66666 4.26665C3.37736 4.26665 3.14285 4.02787 3.14285 3.73332C3.14285 3.43877 3.37736 3.19998 3.66666 3.19998C3.95595 3.19998 4.19046 3.43877 4.19046 3.73332ZM1.57142 4.26665C1.86071 4.26665 2.09523 4.02787 2.09523 3.73332C2.09523 3.43877 1.86071 3.19998 1.57142 3.19998C1.28212 3.19998 1.04761 3.43877 1.04761 3.73332C1.04761 4.02787 1.28212 4.26665 1.57142 4.26665ZM3.14285 4.79998C3.14285 5.09454 2.90833 5.33332 2.61904 5.33332C2.32974 5.33332 2.09523 5.09454 2.09523 4.79998C2.09523 4.50543 2.32974 4.26665 2.61904 4.26665C2.90833 4.26665 3.14285 4.50543 3.14285 4.79998ZM4.71427 5.33332C5.00357 5.33332 5.23808 5.09454 5.23808 4.79998C5.23808 4.50543 5.00357 4.26665 4.71427 4.26665C4.42498 4.26665 4.19046 4.50543 4.19046 4.79998C4.19046 5.09454 4.42498 5.33332 4.71427 5.33332ZM7.33332 4.79998C7.33332 5.09454 7.0988 5.33332 6.80951 5.33332C6.52022 5.33332 6.2857 5.09454 6.2857 4.79998C6.2857 4.50543 6.52022 4.26665 6.80951 4.26665C7.0988 4.26665 7.33332 4.50543 7.33332 4.79998ZM7.85713 6.39998C8.14642 6.39998 8.38094 6.1612 8.38094 5.86665C8.38094 5.5721 8.14642 5.33332 7.85713 5.33332C7.56784 5.33332 7.33332 5.5721 7.33332 5.86665C7.33332 6.1612 7.56784 6.39998 7.85713 6.39998ZM6.2857 5.86665C6.2857 6.1612 6.05119 6.39998 5.76189 6.39998C5.4726 6.39998 5.23808 6.1612 5.23808 5.86665C5.23808 5.5721 5.4726 5.33332 5.76189 5.33332C6.05119 5.33332 6.2857 5.5721 6.2857 5.86665ZM3.66666 6.39998C3.95595 6.39998 4.19046 6.1612 4.19046 5.86665C4.19046 5.5721 3.95595 5.33332 3.66666 5.33332C3.37736 5.33332 3.14285 5.5721 3.14285 5.86665C3.14285 6.1612 3.37736 6.39998 3.66666 6.39998ZM2.09523 5.86665C2.09523 6.1612 1.86071 6.39998 1.57142 6.39998C1.28212 6.39998 1.04761 6.1612 1.04761 5.86665C1.04761 5.5721 1.28212 5.33332 1.57142 5.33332C1.86071 5.33332 2.09523 5.5721 2.09523 5.86665Z" fill="url(#paint0_linear_441_2444)"/>
</g>
</g>
<defs>
<filter id="filter0_d_441_2444" x="1.04761" y="1.06665" width="7.33331" height="6.33337" filterUnits="userSpaceOnUse" color-interpolation-filters="sRGB">
<feFlood flood-opacity="0" result="BackgroundImageFix"/>
<feColorMatrix in="SourceAlpha" type="matrix" values="0 0 0 0 0 0 0 0 0 0 0 0 0 0 0 0 0 0 127 0" result="hardAlpha"/>
<feOffset dy="1"/>
<feColorMatrix type="matrix" values="0 0 0 0 0 0 0 0 0 0 0 0 0 0 0 0 0 0 0.06 0"/>
<feBlend mode="normal" in2="BackgroundImageFix" result="effect1_dropShadow_441_2444"/>
<feBlend mode="normal" in="SourceGraphic" in2="effect1_dropShadow_441_2444" result="shape"/>
</filter>
<linearGradient id="paint0_linear_441_2444" x1="1.04761" y1="1.06665" x2="1.04761" y2="6.39998" gradientUnits="userSpaceOnUse">
<stop stop-color="white"/>
<stop offset="1" stop-color="#F0F0F0"/>
</linearGradient>
</defs>
</svg>
