<svg width="20" height="20" viewBox="0 0 20 20" fill="none" xmlns="http://www.w3.org/2000/svg">
<path d="M9.95508 6.52344V10.079L11.7329 11.8568" stroke="#544B99" stroke-width="1.5" stroke-linecap="round" stroke-linejoin="round"/>
<path d="M2 9.18929C2.19919 7.23379 3.11134 5.42006 4.56243 4.09415C6.01351 2.76825 7.90195 2.02297 9.86744 2.00052C11.8329 1.97807 13.7379 2.68002 15.2189 3.97244C16.6999 5.26485 17.6532 7.05727 17.897 9.00772C18.1408 10.9582 17.658 12.9301 16.5407 14.5473C15.4235 16.1645 13.7499 17.3138 11.8394 17.7758C9.92881 18.2379 7.91503 17.9804 6.18222 17.0525C4.4494 16.1245 3.11886 14.5911 2.44444 12.7448M2 17.1893V12.7448H6.44444" stroke="#544B99" stroke-width="1.5" stroke-linecap="round" stroke-linejoin="round"/>
</svg>
