<svg width="194" height="37" viewBox="0 0 194 37" fill="none" xmlns="http://www.w3.org/2000/svg">
<path d="M7.41477 1.09091V36H0.0340909V1.09091H7.41477ZM42.6861 1.09091V36H36.3111L21.1236 14.0284H20.8679V36H13.4872V1.09091H19.9645L35.0327 23.0455H35.3395V1.09091H42.6861ZM55.0909 1.09091L63.5284 27.6136H63.8523L72.3068 1.09091H80.4886L68.4545 36H58.9432L46.892 1.09091H55.0909ZM114.801 18.5455C114.801 22.3523 114.08 25.5909 112.636 28.2614C111.205 30.9318 109.25 32.9716 106.773 34.3807C104.307 35.7784 101.534 36.4773 98.4545 36.4773C95.3523 36.4773 92.5682 35.7727 90.1023 34.3636C87.6364 32.9545 85.6875 30.9148 84.2557 28.2443C82.8239 25.5739 82.108 22.3409 82.108 18.5455C82.108 14.7386 82.8239 11.5 84.2557 8.82955C85.6875 6.15909 87.6364 4.125 90.1023 2.72727C92.5682 1.31818 95.3523 0.613635 98.4545 0.613635C101.534 0.613635 104.307 1.31818 106.773 2.72727C109.25 4.125 111.205 6.15909 112.636 8.82955C114.08 11.5 114.801 14.7386 114.801 18.5455ZM107.318 18.5455C107.318 16.0795 106.949 14 106.21 12.3068C105.483 10.6136 104.455 9.32955 103.125 8.45455C101.795 7.57955 100.239 7.14205 98.4545 7.14205C96.6705 7.14205 95.1136 7.57955 93.7841 8.45455C92.4545 9.32955 91.4205 10.6136 90.6818 12.3068C89.9545 14 89.5909 16.0795 89.5909 18.5455C89.5909 21.0114 89.9545 23.0909 90.6818 24.7841C91.4205 26.4773 92.4545 27.7614 93.7841 28.6364C95.1136 29.5114 96.6705 29.9489 98.4545 29.9489C100.239 29.9489 101.795 29.5114 103.125 28.6364C104.455 27.7614 105.483 26.4773 106.21 24.7841C106.949 23.0909 107.318 21.0114 107.318 18.5455ZM127.649 1.09091V36H120.268V1.09091H127.649ZM164.523 13.3125H157.057C156.92 12.3466 156.642 11.4886 156.222 10.7386C155.801 9.97727 155.261 9.32954 154.602 8.79545C153.943 8.26136 153.182 7.85227 152.318 7.56818C151.466 7.28409 150.54 7.14205 149.54 7.14205C147.733 7.14205 146.159 7.59091 144.818 8.48864C143.477 9.375 142.438 10.6705 141.699 12.375C140.96 14.0682 140.591 16.125 140.591 18.5455C140.591 21.0341 140.96 23.125 141.699 24.8182C142.449 26.5114 143.494 27.7898 144.835 28.6534C146.176 29.517 147.727 29.9489 149.489 29.9489C150.477 29.9489 151.392 29.8182 152.233 29.5568C153.085 29.2955 153.841 28.9148 154.5 28.4148C155.159 27.9034 155.705 27.2841 156.136 26.5568C156.58 25.8295 156.886 25 157.057 24.0682L164.523 24.1023C164.33 25.7045 163.847 27.25 163.074 28.7386C162.313 30.2159 161.284 31.5398 159.989 32.7102C158.705 33.8693 157.17 34.7898 155.386 35.4716C153.614 36.142 151.608 36.4773 149.369 36.4773C146.256 36.4773 143.472 35.7727 141.017 34.3636C138.574 32.9545 136.642 30.9148 135.222 28.2443C133.812 25.5739 133.108 22.3409 133.108 18.5455C133.108 14.7386 133.824 11.5 135.256 8.82955C136.688 6.15909 138.631 4.125 141.085 2.72727C143.54 1.31818 146.301 0.613635 149.369 0.613635C151.392 0.613635 153.267 0.897726 154.994 1.46591C156.733 2.03409 158.273 2.86364 159.614 3.95454C160.955 5.03409 162.045 6.35795 162.886 7.92614C163.739 9.49432 164.284 11.2898 164.523 13.3125ZM169.815 36V1.09091H193.338V7.17614H177.196V15.4943H192.128V21.5795H177.196V29.9148H193.406V36H169.815Z" fill="white"/>
</svg>
