<svg width="61" height="48" viewBox="0 0 61 48" fill="none" xmlns="http://www.w3.org/2000/svg">
<path d="M61 11V39.0951C61.0001 41.3665 60.1084 43.552 58.5073 45.2046C56.9062 46.8572 54.7167 47.8519 52.3868 47.9852L51.85 48H9.15C6.81611 48.0001 4.57038 47.1323 2.8723 45.574C1.17423 44.0158 0.152172 41.885 0.0152503 39.6175L0 39.0951V11L28.8072 29.6915L29.161 29.8874C29.578 30.0856 30.0359 30.1887 30.5 30.1887C30.9641 30.1887 31.422 30.0856 31.8389 29.8874L32.1927 29.6915L61 11Z" fill="#544B99"/>
<path d="M52.1117 0C55.4461 0 58.3699 1.75452 60 4.39246L30.5 24L1 4.39246C1.77429 3.13913 2.83789 2.0885 4.10212 1.32817C5.36635 0.567845 6.79457 0.119853 8.26771 0.0215467L8.88828 0H52.1117Z" fill="#544B99"/>
</svg>
