<svg width="20" height="16" viewBox="0 0 20 16" fill="none" xmlns="http://www.w3.org/2000/svg">
<path d="M11.6115 8.59709C11.0056 8.59709 10.496 8.36718 10.0827 7.90736C9.66946 7.44754 9.46283 6.88054 9.46283 6.20635C9.46283 5.53216 9.66946 4.96516 10.0827 4.50534C10.496 4.04552 11.0056 3.81562 11.6115 3.81562C12.2174 3.81562 12.727 4.04552 13.1403 4.50534C13.5536 4.96516 13.7602 5.53216 13.7602 6.20635C13.7602 6.88054 13.5536 7.44754 13.1403 7.90736C12.727 8.36718 12.2174 8.59709 11.6115 8.59709ZM4.95918 12.4139C4.48145 12.4139 4.07284 12.2246 3.73335 11.8461C3.39314 11.4676 3.22303 11.0129 3.22303 10.4822V1.93052C3.22303 1.39978 3.39314 0.945536 3.73335 0.5678C4.07356 0.190063 4.48181 0.000796912 4.9581 0H18.2639C18.7416 0 19.1502 0.188868 19.4897 0.566604C19.8292 0.944341 19.9993 1.39898 20 1.93052V10.4822C20 11.0129 19.8299 11.4672 19.4897 11.8449C19.1502 12.2242 18.7419 12.4139 18.2649 12.4139H4.95918ZM6.03352 11.2185H17.1895C17.1895 10.683 17.3596 10.2272 17.6998 9.85103C18.0393 9.47489 18.4476 9.28681 18.9246 9.28681V3.12589C18.4447 3.12589 18.0357 2.93702 17.6977 2.55928C17.3589 2.18075 17.1895 1.72611 17.1895 1.19537H6.03352C6.03352 1.7301 5.86342 2.18553 5.52321 2.56167C5.18371 2.93782 4.77546 3.12589 4.29845 3.12589V9.28681C4.77833 9.28681 5.18765 9.47608 5.52643 9.85462C5.86449 10.2324 6.03352 10.6866 6.03352 11.2173M16.2806 15.9988H1.73614C1.25842 15.9988 0.849807 15.8099 0.510314 15.4322C0.170105 15.0537 0 14.599 0 14.0683V4.13717C0 3.96822 0.0515686 3.82637 0.154706 3.71162C0.257843 3.59686 0.38569 3.53949 0.538247 3.53949C0.690804 3.53949 0.818293 3.59686 0.920713 3.71162C1.02313 3.82637 1.07434 3.96822 1.07434 4.13717V14.0683C1.07434 14.2516 1.1431 14.4201 1.28062 14.5739C1.41885 14.7277 1.57069 14.8046 1.73614 14.8046H16.2806C16.4332 14.8046 16.5607 14.8616 16.6631 14.9756C16.7662 15.0903 16.8178 15.2326 16.8178 15.4023C16.8178 15.5721 16.7662 15.7139 16.6631 15.8279C16.5599 15.9418 16.4325 15.998 16.2806 15.9988ZM4.95918 11.2185H4.29738V1.19417H4.95918C4.78012 1.19417 4.62505 1.26709 4.49398 1.41293C4.36291 1.55876 4.29738 1.73089 4.29738 1.92932V10.4822C4.29738 10.6814 4.36291 10.8539 4.49398 10.9998C4.62505 11.1456 4.78012 11.2185 4.95918 11.2185Z" fill="#544B99"/>
</svg>
