<svg width="40" height="40" viewBox="0 0 40 40" fill="none" xmlns="http://www.w3.org/2000/svg">
<rect width="40" height="40" rx="20" fill="#FF0000"/>
<path d="M27.7695 19.6453C27.039 18.7923 26.7071 18.0531 26.7071 16.7972V16.3701C26.7071 14.7335 26.3304 13.6791 25.5115 12.6246C24.2493 10.987 22.1244 10 20.0442 10H19.9558C17.9194 10 15.8611 10.9417 14.577 12.5128C13.7133 13.5884 13.2929 14.6882 13.2929 16.3701V16.7972C13.2929 18.0531 12.9828 18.7923 12.2305 19.6453C11.6769 20.2738 11.5 21.0815 11.5 21.9557C11.5 22.8309 11.7872 23.6598 12.3637 24.3336C13.116 25.1413 14.1785 25.6569 15.2638 25.7466C16.835 25.9258 18.4063 25.9933 20.0005 25.9933C21.5937 25.9933 23.165 25.8805 24.7372 25.7466C25.8215 25.6569 26.884 25.1413 27.6363 24.3336C28.2118 23.6598 28.5 22.8309 28.5 21.9557C28.5 21.0815 28.3231 20.2738 27.7695 19.6453Z" fill="white"/>
<path opacity="0.4" d="M22.0086 27.2285C21.5087 27.1217 18.4625 27.1217 17.9626 27.2285C17.5353 27.3272 17.0731 27.5568 17.0731 28.0604C17.098 28.5408 17.3792 28.9648 17.7688 29.2337L17.7678 29.2347C18.2717 29.6275 18.8631 29.8773 19.4822 29.9669C19.8122 30.0122 20.1481 30.0102 20.49 29.9669C21.1082 29.8773 21.6995 29.6275 22.2034 29.2347L22.2024 29.2337C22.592 28.9648 22.8733 28.5408 22.8981 28.0604C22.8981 27.5568 22.436 27.3272 22.0086 27.2285Z" fill="white"/>
</svg>
