<svg width="20" height="20" viewBox="0 0 20 20" fill="none" xmlns="http://www.w3.org/2000/svg">
<path d="M7.50033 1.66699H12.5003C16.667 1.66699 18.3337 3.33366 18.3337 7.50033V12.5003C18.3337 16.667 16.667 18.3337 12.5003 18.3337H7.50033C3.33366 18.3337 1.66699 16.667 1.66699 12.5003V7.50033C1.66699 3.33366 3.33366 1.66699 7.50033 1.66699Z" stroke="#7631FF" stroke-width="1.5" stroke-linecap="round" stroke-linejoin="round"/>
<path d="M7.1416 12.7254L12.5916 7.27539" stroke="#7631FF" stroke-width="1.5" stroke-linecap="round" stroke-linejoin="round"/>
<path d="M7.48302 8.64179C8.04911 8.64179 8.508 8.1829 8.508 7.61681C8.508 7.05071 8.04911 6.5918 7.48302 6.5918C6.91693 6.5918 6.45801 7.05071 6.45801 7.61681C6.45801 8.1829 6.91693 8.64179 7.48302 8.64179Z" stroke="#7631FF" stroke-width="1.5" stroke-linecap="round" stroke-linejoin="round"/>
<path d="M12.9332 13.4084C13.4993 13.4084 13.9582 12.9495 13.9582 12.3834C13.9582 11.8173 13.4993 11.3584 12.9332 11.3584C12.3671 11.3584 11.9082 11.8173 11.9082 12.3834C11.9082 12.9495 12.3671 13.4084 12.9332 13.4084Z" stroke="#7631FF" stroke-width="1.5" stroke-linecap="round" stroke-linejoin="round"/>
</svg>
