<svg width="63" height="60" viewBox="0 0 63 60" fill="none" xmlns="http://www.w3.org/2000/svg">
<path d="M34.6501 47.3684V53.6842H47.25V60H15.7501V53.6842H28.3501V47.3684H3.12495C2.71104 47.3659 2.3017 47.2816 1.92041 47.1201C1.53912 46.9586 1.19339 46.7233 0.903055 46.4275C0.612724 46.1317 0.38351 45.7814 0.228567 45.3966C0.0736247 45.0119 -0.0039964 44.6002 0.000158392 44.1853V3.18316C0.000158392 1.42421 1.43341 0 3.12495 0H59.8752C61.6014 0 63 1.41789 63 3.18V44.1853C63 45.9442 61.5668 47.3684 59.8752 47.3684H34.6501Z" fill="#544B99"/>
<rect x="38" y="5" width="21" height="4" rx="1" fill="white"/>
</svg>
