<svg width="21" height="20" viewBox="0 0 21 20" fill="none" xmlns="http://www.w3.org/2000/svg">
<path d="M8.41797 11.4575C8.41797 12.2659 9.04298 12.9159 9.80965 12.9159H11.3763C12.043 12.9159 12.5846 12.3492 12.5846 11.6409C12.5846 10.8825 12.2513 10.6076 11.7596 10.4326L9.2513 9.55755C8.75964 9.38255 8.42631 9.11588 8.42631 8.34922C8.42631 7.64922 8.96796 7.07422 9.63463 7.07422H11.2013C11.968 7.07422 12.593 7.72422 12.593 8.53255" stroke="#7631FF" stroke-width="1.5" stroke-linecap="round" stroke-linejoin="round"/>
<path d="M10.502 6.25V13.75" stroke="#7631FF" stroke-width="1.5" stroke-linecap="round" stroke-linejoin="round"/>
<path d="M18.8327 9.99935C18.8327 14.5993 15.0993 18.3327 10.4993 18.3327C5.89935 18.3327 2.16602 14.5993 2.16602 9.99935C2.16602 5.39935 5.89935 1.66602 10.4993 1.66602" stroke="#7631FF" stroke-width="1.5" stroke-linecap="round" stroke-linejoin="round"/>
<path d="M18.8333 4.99935V1.66602H15.5" stroke="#7631FF" stroke-width="1.5" stroke-linecap="round" stroke-linejoin="round"/>
<path d="M14.666 5.83268L18.8327 1.66602" stroke="#7631FF" stroke-width="1.5" stroke-linecap="round" stroke-linejoin="round"/>
</svg>
