<svg width="17" height="17" viewBox="0 0 17 17" fill="none" xmlns="http://www.w3.org/2000/svg">
<path d="M0.75 4.75H16.25V16C16.25 16.1381 16.1381 16.25 16 16.25H1C0.861929 16.25 0.75 16.1381 0.75 16V4.75Z" stroke="#544B99" stroke-width="1.5"/>
<path d="M8.07444 0.20037C8.34412 0.0734649 8.65636 0.0734684 8.92604 0.20038L17 4H0L8.07444 0.20037Z" fill="#544B99"/>
<path d="M0.75 4.75H16.25V8.75H0.75V4.75Z" stroke="#544B99" stroke-width="1.5"/>
<path d="M6.5 5V9" stroke="#544B99" stroke-width="1.5"/>
<path d="M10.5 4.5V9" stroke="#544B99" stroke-width="1.5"/>
<path d="M3 10.5H5V12.5H3V10.5Z" fill="#544B99"/>
<path d="M6 10.5H8V12.5H6V10.5Z" fill="#544B99"/>
<path d="M6 13H8V15H6V13Z" fill="#544B99"/>
<path d="M9 13H11V15H9V13Z" fill="#544B99"/>
<path d="M3 13H5V15H3V13Z" fill="#544B99"/>
</svg>
