<svg width="21" height="20" viewBox="0 0 21 20" fill="none" xmlns="http://www.w3.org/2000/svg">
<path d="M2.67188 3.54851C3.78516 2.83528 4.79688 2.19452 4.91406 2.12586L5.12891 2H6.38672C7.42188 2 7.67188 2.01144 7.78516 2.05721C7.85938 2.08772 7.94141 2.15256 7.96484 2.20215C7.99219 2.24791 8.03516 2.36615 8.0625 2.46913C8.10156 2.59118 8.17188 2.69797 8.28125 2.80477C8.375 2.88868 8.55469 3.01073 8.68359 3.06794C8.8125 3.12896 9.05859 3.21287 9.23047 3.25864C9.40234 3.3006 9.75391 3.35399 10.0117 3.37688C10.3477 3.40739 10.6172 3.40739 10.9688 3.37688C11.2383 3.35399 11.5977 3.3006 11.7695 3.25864C11.9414 3.21287 12.1875 3.12896 12.3164 3.06794C12.4453 3.01073 12.625 2.88868 12.7148 2.80477C12.8281 2.69797 12.8984 2.59118 12.9375 2.46913C12.9648 2.36615 13.0078 2.24791 13.0352 2.20215C13.0586 2.15256 13.1406 2.08772 13.2148 2.05721C13.3281 2.01144 13.5781 2 15.8711 2L16.0859 2.12586C16.2031 2.19452 17.2148 2.83528 18.3281 3.54851C19.7227 4.43719 20.3789 4.8758 20.4297 4.9559C20.4688 5.02074 20.5 5.11228 20.5 5.16567C20.5 5.21907 20.1562 5.98188 19.7383 6.86293C19.2031 7.98808 18.9375 8.49535 18.8594 8.57163C18.7734 8.6441 18.7031 8.67461 18.5938 8.67461C18.4922 8.67461 18.1445 8.53349 17.3555 8.17878C16.7539 7.90417 16.25 7.68296 16.2305 7.68296C16.2148 7.68296 16.2031 8.49535 16.2031 9.48701C16.2031 11.2186 16.1992 11.2911 16.125 11.4131C16.0742 11.4894 15.9961 11.5504 15.9102 11.5733C15.819 11.5987 15.7279 11.5987 15.6367 11.5733C15.5508 11.5504 15.4727 11.4894 15.4219 11.4131C15.3477 11.2911 15.3438 11.2186 15.3438 6.84386L15.4766 6.71037C15.582 6.60358 15.6406 6.57688 15.7617 6.57688C15.8711 6.57688 16.2227 6.72181 17.1211 7.12992C17.7891 7.43504 18.3398 7.68296 18.3516 7.68296C18.3633 7.68677 18.6211 7.16424 18.9258 6.53111C19.2344 5.89416 19.4844 5.36019 19.4844 5.33731C19.4844 5.31824 18.6172 4.74613 15.6367 2.84291L13.7422 2.83909L13.6289 3.04124C13.5703 3.14803 13.4219 3.32729 13.3086 3.43027C13.1914 3.53707 12.9531 3.69344 12.7852 3.77735C12.6133 3.86508 12.3594 3.97187 12.2188 4.01383C12.0781 4.05959 11.8047 4.12443 11.6133 4.16257C11.3516 4.21216 11.0703 4.22741 10.5 4.22741C9.92969 4.22741 9.64844 4.21216 9.38672 4.16257C9.19531 4.12443 8.92188 4.05959 8.78125 4.01383C8.64062 3.97187 8.38672 3.86508 8.21484 3.77735C8.04688 3.69344 7.80859 3.53707 7.69141 3.43027C7.57812 3.32729 7.42969 3.14803 7.25781 2.83909L5.36328 2.84291L3.44141 4.07104C2.38281 4.74613 1.51562 5.31442 1.51562 5.33731C1.51562 5.36019 1.76562 5.89416 2.07422 6.53111C2.37891 7.16424 2.63672 7.68677 2.64844 7.68296C2.66016 7.68296 3.21094 7.43504 3.87891 7.12992C4.75781 6.72944 5.12891 6.57688 5.23438 6.57688C5.35156 6.57688 5.41016 6.60358 5.65625 6.84386V15.6544L10.1562 15.6734L10.2695 15.7993C10.3594 15.8946 10.3828 15.9557 10.3828 16.093C10.3828 16.2341 10.3633 16.2837 10.1406 16.4934H5.07031L4.79688 16.2265V11.9547C4.79688 9.60524 4.78516 7.68296 4.76562 7.68296C4.75 7.68296 4.24609 7.90417 3.64453 8.17878C2.85547 8.53349 2.50781 8.67461 2.40234 8.67461C2.29688 8.67461 2.22656 8.6441 2.14062 8.57163C2.0625 8.49535 1.79688 7.98808 1.26172 6.86293C0.84375 5.98188 0.5 5.21907 0.5 5.16567C0.5 5.11228 0.53125 5.02074 0.570312 4.9559C0.621094 4.8758 1.27734 4.43719 2.67188 3.54851Z" fill="#7631FF"/>
<path d="M14.1797 12.481C14.2266 12.4238 14.332 12.3437 14.4062 12.3018C14.4805 12.256 14.6133 12.2217 14.6992 12.2217C14.8008 12.2217 14.9102 12.256 15.0117 12.3209C15.0977 12.3743 15.2422 12.5154 15.3359 12.6336C15.4258 12.7518 15.5117 12.9006 15.5234 12.9654C15.5391 13.0341 15.5234 13.1294 15.4844 13.2019C15.4492 13.2706 15.375 13.3583 15.3125 13.3926C15.2344 13.4384 15.1602 13.4498 15.0312 13.4346C14.918 13.4193 14.8281 13.3774 14.6914 13.2324L13.3555 15.1852C12.625 16.2608 12.0352 17.1495 12.0508 17.1609C12.0703 17.1723 13.2617 17.18 14.7031 17.18C16.1445 17.18 17.3359 17.1723 17.3477 17.1609C17.3633 17.1495 17.125 16.7757 16.8203 16.3294C16.293 15.559 16.2656 15.5247 16.2383 15.6353C16.2227 15.6963 16.1875 15.8527 16.1602 15.9785C16.1289 16.1387 16.082 16.2379 16.0039 16.3104C15.918 16.3943 15.8594 16.4172 15.7188 16.4172C15.5703 16.4172 15.5195 16.3981 15.4219 16.3027C15.3281 16.2112 15.3047 16.1578 15.3047 16.0167C15.3047 15.9213 15.375 15.5056 15.457 15.0899C15.543 14.678 15.6289 14.2927 15.6523 14.2317C15.6758 14.1745 15.7344 14.102 15.7812 14.0715C15.832 14.041 15.9492 14.0143 16.0469 14.0143C16.1445 14.0143 16.582 14.083 17.0234 14.1707C17.4648 14.2584 17.8555 14.3423 17.8906 14.3614C17.9297 14.3805 17.9961 14.4529 18.0391 14.5178C18.082 14.5864 18.1172 14.6856 18.1172 14.739C18.1172 14.7924 18.0859 14.8839 18.0469 14.9487C18.0078 15.0098 17.9141 15.0861 17.8398 15.1166C17.7227 15.1661 17.668 15.1662 17.375 15.1089C17.1914 15.0746 17.0391 15.0555 17.0312 15.0632C17.0273 15.0746 17.3203 15.5247 17.6836 16.0625C18.0469 16.6041 18.375 17.1342 18.418 17.2448C18.4883 17.4393 18.4883 17.4431 18.4102 17.6262C18.3477 17.7673 18.2891 17.8322 17.9805 18H11.418L11.25 17.9123C11.125 17.8474 11.0664 17.7864 11.0039 17.6453C10.9453 17.5194 10.9297 17.4241 10.9453 17.3325C10.957 17.2601 11.0547 17.0617 11.1562 16.8939C11.2617 16.7261 11.9609 15.6887 12.7148 14.5864C13.4688 13.4841 14.1289 12.5383 14.1797 12.481Z" fill="#7631FF"/>
</svg>
