<svg width="35" height="55" viewBox="0 0 35 55" fill="none" xmlns="http://www.w3.org/2000/svg">
<path d="M4.71042 55C3.36875 55 2.24875 54.5765 1.35042 53.7295C0.452083 52.8825 0.00194444 51.8256 0 50.5588V4.44125C0 3.17625 0.450138 2.12025 1.35042 1.27325C2.25069 0.42625 3.37069 0.00183333 4.71042 0H30.2896C31.6313 0 32.7513 0.424417 33.6496 1.27325C34.5479 2.12208 34.9981 3.17808 35 4.44125V50.5588C35 51.8237 34.5508 52.8798 33.6525 53.7268C32.7542 54.5738 31.6332 54.9982 30.2896 55H4.71042ZM2.91667 45.375H32.0833V9.625H2.91667V45.375Z" fill="#544B99"/>
<path d="M4.71042 55C3.36875 55 2.24875 54.5765 1.35042 53.7295C0.452083 52.8825 0.00194444 51.8256 0 50.5588V4.44125C0 3.17625 0.450138 2.12025 1.35042 1.27325C2.25069 0.42625 3.37069 0.00183333 4.71042 0H30.2896C31.6313 0 32.7513 0.424417 33.6496 1.27325C34.5479 2.12208 34.9981 3.17808 35 4.44125V50.5588C35 51.8237 34.5508 52.8798 33.6525 53.7268C32.7542 54.5738 31.6332 54.9982 30.2896 55H4.71042ZM2.91667 45.375H32.0833V9.625H2.91667V45.375Z" fill="#544B99"/>
<path fill-rule="evenodd" clip-rule="evenodd" d="M23.6574 21.5481C23.853 21.4727 24.0672 21.4466 24.2775 21.4727C24.4879 21.4989 24.6867 21.5762 24.8534 21.6967C25.02 21.8172 25.1484 21.9764 25.2252 22.1578C25.302 22.3392 25.3243 22.5361 25.2898 22.7281L23.4943 32.7115C23.3202 33.6745 22.1675 34.2267 21.204 33.7471C20.3981 33.3457 19.2011 32.7275 18.1245 32.0823C17.5861 31.7594 15.9371 30.7253 16.1397 29.9894C16.3139 29.3602 19.0847 26.9959 20.6681 25.5903C21.2895 25.038 21.0061 24.7194 20.2722 25.2274C18.4498 26.4887 15.5238 28.4067 14.5564 28.9466C13.703 29.4226 13.2581 29.5039 12.7261 29.4226C11.7555 29.2746 10.8554 29.0453 10.1207 28.7659C9.12795 28.3885 9.17625 27.1374 10.1199 26.7731L23.6574 21.5481Z" fill="#544B99"/>
</svg>
