<svg width="20" height="20" viewBox="0 0 20 20" fill="none" xmlns="http://www.w3.org/2000/svg">
<path d="M17.5 4.98307C14.725 4.70807 11.9333 4.56641 9.15 4.56641C7.5 4.56641 5.85 4.64974 4.2 4.81641L2.5 4.98307" stroke="#FF4E4F" stroke-width="1.5" stroke-linecap="round" stroke-linejoin="round"/>
<path d="M7.08496 4.14102L7.26829 3.04935C7.40163 2.25768 7.50163 1.66602 8.90996 1.66602H11.0933C12.5016 1.66602 12.61 2.29102 12.735 3.05768L12.9183 4.14102" stroke="#FF4E4F" stroke-width="1.5" stroke-linecap="round" stroke-linejoin="round"/>
<path d="M15.7087 7.61621L15.167 16.0079C15.0753 17.3162 15.0003 18.3329 12.6753 18.3329H7.32533C5.00033 18.3329 4.92533 17.3162 4.83366 16.0079L4.29199 7.61621" stroke="#FF4E4F" stroke-width="1.5" stroke-linecap="round" stroke-linejoin="round"/>
<path d="M8.6084 13.75H11.3834" stroke="#FF4E4F" stroke-width="1.5" stroke-linecap="round" stroke-linejoin="round"/>
<path d="M7.91504 10.416H12.0817" stroke="#FF4E4F" stroke-width="1.5" stroke-linecap="round" stroke-linejoin="round"/>
</svg>
