<svg width="16" height="17" viewBox="0 0 16 17" fill="none" xmlns="http://www.w3.org/2000/svg">
<path d="M8.91206 3.00266V10.9947C8.91206 11.4987 8.50406 11.9067 8.00006 11.9067C7.49606 11.9067 7.11206 11.4987 7.11206 10.9947V3.00266L4.08806 5.66666C3.72806 6.00266 3.15206 5.97866 2.84006 5.59466C2.50406 5.23466 2.52806 4.65866 2.91206 4.32266L7.40006 0.338653C7.73606 0.0266524 8.24006 0.0266524 8.60006 0.314653C8.60006 0.338653 8.60006 0.338653 8.60006 0.338653L13.0881 4.32266C13.4721 4.65866 13.4961 5.23466 13.1841 5.59466C12.8481 5.97866 12.2721 6.00266 11.9121 5.66666L8.91206 3.00266ZM14.1921 13.3947C14.1921 12.8907 14.6001 12.5067 15.1041 12.5067C15.6081 12.5067 15.9921 12.8907 15.9921 13.3947V15.6027C15.9921 16.0827 15.6081 16.4907 15.1041 16.4907H0.896057C0.416057 16.4907 0.00805664 16.0827 0.00805664 15.6027V13.3947C0.00805664 12.8907 0.416057 12.5067 0.896057 12.5067C1.40006 12.5067 1.80806 12.8907 1.80806 13.3947V14.6907H14.1921V13.3947Z" fill="#544B99"/>
<path d="M9.24405 2.62879L8.41206 1.88997V3.00266V10.9947C8.41206 11.2225 8.22791 11.4067 8.00006 11.4067C7.7895 11.4067 7.61206 11.2401 7.61206 10.9947V3.00266V1.89583L6.78154 2.62748L3.75754 5.29148L3.75215 5.29623L3.7469 5.30113C3.58699 5.45038 3.34757 5.42639 3.22811 5.27936L3.21729 5.26605L3.20559 5.2535C3.0632 5.10094 3.06886 4.84984 3.24131 4.69895L3.24132 4.69896L3.24399 4.69658L7.73199 0.712578L7.73207 0.712672L7.74028 0.705049C7.85636 0.597262 8.03091 0.567932 8.19113 0.644232L8.26812 0.712578L12.7561 4.69658L12.7561 4.69659L12.7588 4.69895C12.9325 4.85089 12.9405 5.11126 12.807 5.2663C12.656 5.43787 12.4055 5.44327 12.2532 5.30113L12.2533 5.30102L12.2441 5.29279L9.24405 2.62879ZM1.30806 14.6907V15.1907H1.80806H14.1921H14.6921V14.6907V13.3947C14.6921 13.1841 14.8586 13.0067 15.1041 13.0067C15.3319 13.0067 15.4921 13.1668 15.4921 13.3947V15.6027C15.4921 15.8154 15.3231 15.9907 15.1041 15.9907H0.896057C0.692199 15.9907 0.508057 15.8065 0.508057 15.6027V13.3947C0.508057 13.1756 0.683348 13.0067 0.896057 13.0067C1.14153 13.0067 1.30806 13.1841 1.30806 13.3947V14.6907Z" stroke="#1C375A" stroke-opacity="0.16"/>
</svg>
