<svg width="20" height="20" viewBox="0 0 20 20" fill="none" xmlns="http://www.w3.org/2000/svg">
<path d="M12.5 1.66602V9.99935C12.5 10.916 11.75 11.666 10.8333 11.666H1.66663V4.99935C1.66663 3.15768 3.15829 1.66602 4.99996 1.66602H12.5Z" stroke="#7631FF" stroke-width="1.5" stroke-linecap="round" stroke-linejoin="round"/>
<path d="M18.3333 11.666V14.166C18.3333 15.5493 17.2166 16.666 15.8333 16.666H15C15 15.7493 14.25 14.9993 13.3333 14.9993C12.4166 14.9993 11.6666 15.7493 11.6666 16.666H8.33329C8.33329 15.7493 7.58329 14.9993 6.66663 14.9993C5.74996 14.9993 4.99996 15.7493 4.99996 16.666H4.16663C2.78329 16.666 1.66663 15.5493 1.66663 14.166V11.666H10.8333C11.75 11.666 12.5 10.916 12.5 9.99935V4.16602H14.0333C14.6333 4.16602 15.1833 4.49102 15.4833 5.00769L16.9083 7.49935H15.8333C15.375 7.49935 15 7.87435 15 8.33268V10.8327C15 11.291 15.375 11.666 15.8333 11.666H18.3333Z" stroke="#7631FF" stroke-width="1.5" stroke-linecap="round" stroke-linejoin="round"/>
<path d="M6.66667 18.3333C7.58714 18.3333 8.33333 17.5871 8.33333 16.6667C8.33333 15.7462 7.58714 15 6.66667 15C5.74619 15 5 15.7462 5 16.6667C5 17.5871 5.74619 18.3333 6.66667 18.3333Z" stroke="#7631FF" stroke-width="1.5" stroke-linecap="round" stroke-linejoin="round"/>
<path d="M13.3333 18.3333C14.2538 18.3333 15 17.5871 15 16.6667C15 15.7462 14.2538 15 13.3333 15C12.4128 15 11.6666 15.7462 11.6666 16.6667C11.6666 17.5871 12.4128 18.3333 13.3333 18.3333Z" stroke="#7631FF" stroke-width="1.5" stroke-linecap="round" stroke-linejoin="round"/>
<path d="M18.3333 10V11.6667H15.8333C15.375 11.6667 15 11.2917 15 10.8333V8.33333C15 7.875 15.375 7.5 15.8333 7.5H16.9083L18.3333 10Z" stroke="#7631FF" stroke-width="1.5" stroke-linecap="round" stroke-linejoin="round"/>
</svg>
