<svg width="120" height="120" viewBox="0 0 120 120" fill="none" xmlns="http://www.w3.org/2000/svg">
<rect x="0.5" y="0.5" width="119" height="119" rx="9.5" fill="#F8F4FE"/>
<path d="M60 25C54.76 25 50.5 29.26 50.5 34.5C50.5 39.64 54.52 43.8 59.76 43.98C59.92 43.96 60.08 43.96 60.2 43.98C60.24 43.98 60.26 43.98 60.3 43.98C60.32 43.98 60.32 43.98 60.34 43.98C65.46 43.8 69.48 39.64 69.5 34.5C69.5 29.26 65.24 25 60 25Z" fill="#D2D3D6"/>
<path d="M70.1599 49.3C64.5799 45.58 55.4799 45.58 49.8599 49.3C47.3199 51 45.9199 53.3 45.9199 55.76C45.9199 58.22 47.3199 60.5 49.8399 62.18C52.6399 64.06 56.3199 65 59.9999 65C63.6799 65 67.3599 64.06 70.1599 62.18C72.6799 60.48 74.0799 58.2 74.0799 55.72C74.0599 53.26 72.6799 50.98 70.1599 49.3Z" fill="#D2D3D6"/>
<g clip-path="url(#clip0_240_62330)">
<path d="M32.6668 91.6667L30.0002 89L27.3335 91.6667" stroke="#7631FF" stroke-width="2" stroke-linecap="round" stroke-linejoin="round"/>
<path d="M30 89V95" stroke="#7631FF" stroke-width="2" stroke-linecap="round" stroke-linejoin="round"/>
<path d="M35.5933 93.2599C36.2435 92.9055 36.7572 92.3445 37.0532 91.6657C37.3493 90.9869 37.4108 90.2288 37.2281 89.5111C37.0454 88.7934 36.629 88.157 36.0444 87.7022C35.4599 87.2475 34.7406 87.0004 34 86.9999H33.16C32.9582 86.2194 32.5821 85.4948 32.0599 84.8806C31.5378 84.2664 30.8832 83.7785 30.1454 83.4537C29.4075 83.1289 28.6057 82.9755 27.8001 83.0052C26.9944 83.0349 26.206 83.2468 25.4941 83.6251C24.7822 84.0033 24.1652 84.538 23.6897 85.189C23.2142 85.84 22.8924 86.5903 22.7486 87.3835C22.6048 88.1768 22.6427 88.9923 22.8594 89.7688C23.0762 90.5453 23.4661 91.2625 24 91.8666" stroke="#7631FF" stroke-width="2" stroke-linecap="round" stroke-linejoin="round"/>
<path d="M32.6668 91.6667L30.0002 89L27.3335 91.6667" stroke="#7631FF" stroke-width="2" stroke-linecap="round" stroke-linejoin="round"/>
</g>
<path d="M57.8566 84.8182H59.3978V91.5149C59.3978 92.2275 59.2304 92.8589 58.8957 93.4091C58.5609 93.956 58.0903 94.3868 57.4838 94.7017C56.8772 95.0133 56.1663 95.169 55.3509 95.169C54.5389 95.169 53.8296 95.0133 53.2231 94.7017C52.6166 94.3868 52.1459 93.956 51.8112 93.4091C51.4764 92.8589 51.309 92.2275 51.309 91.5149V84.8182H52.8453V91.3906C52.8453 91.8513 52.9463 92.2607 53.1485 92.6186C53.354 92.9766 53.644 93.2583 54.0186 93.4638C54.3931 93.666 54.8372 93.767 55.3509 93.767C55.868 93.767 56.3138 93.666 56.6883 93.4638C57.0661 93.2583 57.3545 92.9766 57.5534 92.6186C57.7555 92.2607 57.8566 91.8513 57.8566 91.3906V84.8182ZM61.512 97.8636V87.3636H62.9637V88.6016H63.088C63.1742 88.4425 63.2984 88.2585 63.4608 88.0497C63.6233 87.8409 63.8486 87.6586 64.137 87.5028C64.4253 87.3438 64.8065 87.2642 65.2805 87.2642C65.8969 87.2642 66.4471 87.42 66.931 87.7315C67.4149 88.0431 67.7944 88.4922 68.0695 89.0788C68.3479 89.6655 68.4871 90.3714 68.4871 91.1967C68.4871 92.022 68.3496 92.7296 68.0745 93.3196C67.7994 93.9062 67.4215 94.3587 66.941 94.6768C66.4604 94.9917 65.9118 95.1491 65.2954 95.1491C64.8314 95.1491 64.4519 95.0713 64.1569 94.9155C63.8652 94.7597 63.6365 94.5774 63.4708 94.3686C63.3051 94.1598 63.1775 93.9742 63.088 93.8118H62.9985V97.8636H61.512ZM62.9687 91.1818C62.9687 91.7187 63.0465 92.1894 63.2023 92.5938C63.3581 92.9981 63.5835 93.3146 63.8785 93.5433C64.1734 93.7687 64.5347 93.8814 64.9623 93.8814C65.4064 93.8814 65.7776 93.7637 66.0759 93.5284C66.3742 93.2898 66.5996 92.9666 66.752 92.5589C66.9078 92.1513 66.9857 91.6922 66.9857 91.1818C66.9857 90.678 66.9095 90.2256 66.757 89.8246C66.6079 89.4235 66.3825 89.107 66.0809 88.875C65.7826 88.643 65.4097 88.527 64.9623 88.527C64.5314 88.527 64.1668 88.638 63.8685 88.8601C63.5735 89.0821 63.3498 89.392 63.1974 89.7898C63.0449 90.1875 62.9687 90.6515 62.9687 91.1818ZM71.6391 84.8182V95H70.1526V84.8182H71.6391ZM76.8556 95.1541C76.1396 95.1541 75.5149 94.9901 74.9813 94.6619C74.4477 94.3338 74.0334 93.8748 73.7384 93.2848C73.4434 92.6948 73.2959 92.0054 73.2959 91.2166C73.2959 90.4245 73.4434 89.7318 73.7384 89.1385C74.0334 88.5452 74.4477 88.0845 74.9813 87.7564C75.5149 87.4283 76.1396 87.2642 76.8556 87.2642C77.5715 87.2642 78.1962 87.4283 78.7298 87.7564C79.2635 88.0845 79.6778 88.5452 79.9727 89.1385C80.2677 89.7318 80.4152 90.4245 80.4152 91.2166C80.4152 92.0054 80.2677 92.6948 79.9727 93.2848C79.6778 93.8748 79.2635 94.3338 78.7298 94.6619C78.1962 94.9901 77.5715 95.1541 76.8556 95.1541ZM76.8605 93.9062C77.3245 93.9062 77.709 93.7836 78.0139 93.5384C78.3189 93.2931 78.5442 92.9666 78.6901 92.5589C78.8392 92.1513 78.9138 91.7022 78.9138 91.2116C78.9138 90.7244 78.8392 90.277 78.6901 89.8693C78.5442 89.4583 78.3189 89.1286 78.0139 88.88C77.709 88.6314 77.3245 88.5071 76.8605 88.5071C76.3932 88.5071 76.0054 88.6314 75.6972 88.88C75.3923 89.1286 75.1652 89.4583 75.0161 89.8693C74.8702 90.277 74.7973 90.7244 74.7973 91.2116C74.7973 91.7022 74.8702 92.1513 75.0161 92.5589C75.1652 92.9666 75.3923 93.2931 75.6972 93.5384C76.0054 93.7836 76.3932 93.9062 76.8605 93.9062ZM84.2968 95.169C83.8129 95.169 83.3754 95.0795 82.9843 94.9006C82.5932 94.7183 82.2833 94.4548 82.0546 94.1101C81.8292 93.7654 81.7165 93.3428 81.7165 92.8423C81.7165 92.4115 81.7994 92.0568 81.9651 91.7784C82.1308 91.5 82.3546 91.2796 82.6363 91.1172C82.918 90.9548 83.2329 90.8321 83.5809 90.7493C83.9289 90.6664 84.2835 90.6035 84.6448 90.5604C85.1022 90.5073 85.4734 90.4643 85.7584 90.4311C86.0435 90.3946 86.2506 90.3366 86.3799 90.2571C86.5091 90.1776 86.5738 90.0483 86.5738 89.8693V89.8345C86.5738 89.4003 86.4511 89.0639 86.2059 88.8253C85.9639 88.5866 85.6027 88.4673 85.1221 88.4673C84.6216 88.4673 84.2272 88.5784 83.9388 88.8004C83.6538 89.0192 83.4566 89.2628 83.3472 89.5312L81.9502 89.2131C82.1159 88.7491 82.3579 88.3745 82.676 88.0895C82.9975 87.8011 83.3671 87.5923 83.7847 87.4631C84.2023 87.3305 84.6415 87.2642 85.1022 87.2642C85.4071 87.2642 85.7303 87.3007 86.0716 87.3736C86.4163 87.4432 86.7378 87.5724 87.0361 87.7614C87.3377 87.9503 87.5847 88.2204 87.7769 88.5717C87.9691 88.9197 88.0653 89.3722 88.0653 89.929V95H86.6135V93.956H86.5539C86.4578 94.1482 86.3136 94.3371 86.1214 94.5227C85.9291 94.7083 85.6822 94.8625 85.3806 94.9851C85.079 95.1077 84.7177 95.169 84.2968 95.169ZM84.6199 93.9759C85.0309 93.9759 85.3823 93.8946 85.6739 93.7322C85.9689 93.5698 86.1926 93.3577 86.3451 93.0959C86.5009 92.8307 86.5787 92.5473 86.5787 92.2457V91.2614C86.5257 91.3144 86.423 91.3641 86.2705 91.4105C86.1214 91.4536 85.9507 91.4917 85.7584 91.5249C85.5662 91.5547 85.3789 91.5829 85.1966 91.6094C85.0144 91.6326 84.8619 91.6525 84.7393 91.669C84.4509 91.7055 84.1874 91.7668 83.9488 91.853C83.7135 91.9392 83.5245 92.0634 83.382 92.2259C83.2428 92.3849 83.1732 92.5971 83.1732 92.8622C83.1732 93.2301 83.3091 93.5085 83.5809 93.6974C83.8527 93.883 84.199 93.9759 84.6199 93.9759ZM92.9039 95.1491C92.2874 95.1491 91.7372 94.9917 91.2533 94.6768C90.7727 94.3587 90.3949 93.9062 90.1198 93.3196C89.848 92.7296 89.7121 92.022 89.7121 91.1967C89.7121 90.3714 89.8496 89.6655 90.1247 89.0788C90.4031 88.4922 90.7843 88.0431 91.2682 87.7315C91.7521 87.42 92.3006 87.2642 92.9138 87.2642C93.3878 87.2642 93.7689 87.3438 94.0573 87.5028C94.3489 87.6586 94.5743 87.8409 94.7334 88.0497C94.8958 88.2585 95.0218 88.4425 95.1112 88.6016H95.2007V84.8182H96.6872V95H95.2355V93.8118H95.1112C95.0218 93.9742 94.8925 94.1598 94.7235 94.3686C94.5577 94.5774 94.329 94.7597 94.0374 94.9155C93.7457 95.0713 93.3679 95.1491 92.9039 95.1491ZM93.232 93.8814C93.6595 93.8814 94.0208 93.7687 94.3158 93.5433C94.6141 93.3146 94.8395 92.9981 94.9919 92.5938C95.1477 92.1894 95.2256 91.7187 95.2256 91.1818C95.2256 90.6515 95.1494 90.1875 94.9969 89.7898C94.8444 89.392 94.6207 89.0821 94.3257 88.8601C94.0307 88.638 93.6662 88.527 93.232 88.527C92.7845 88.527 92.4117 88.643 92.1134 88.875C91.8151 89.107 91.5897 89.4235 91.4372 89.8246C91.2881 90.2256 91.2135 90.678 91.2135 91.1818C91.2135 91.6922 91.2897 92.1513 91.4422 92.5589C91.5947 92.9666 91.82 93.2898 92.1183 93.5284C92.42 93.7637 92.7912 93.8814 93.232 93.8814Z" fill="#7631FF"/>
<rect x="0.5" y="0.5" width="119" height="119" rx="9.5" stroke="#D2D3D6" stroke-dasharray="6 6"/>
<defs>
<clipPath id="clip0_240_62330">
<rect width="16" height="16" fill="white" transform="translate(22 81)"/>
</clipPath>
</defs>
</svg>
