<svg width="20" height="20" viewBox="0 0 20 20" fill="none" xmlns="http://www.w3.org/2000/svg">
<g clip-path="url(#clip0_3929_49200)">
<path d="M18.3375 5.83333H19.1708V14.1667H18.3375V16.6667C18.3375 17.1269 17.9644 17.5 17.5041 17.5H2.50411C2.04388 17.5 1.67078 17.1269 1.67078 16.6667V3.33333C1.67078 2.87309 2.04388 2.5 2.50411 2.5H17.5041C17.9644 2.5 18.3375 2.87309 18.3375 3.33333V5.83333ZM16.6708 14.1667H11.6708C9.36963 14.1667 7.50411 12.3012 7.50411 10C7.50411 7.69881 9.36963 5.83333 11.6708 5.83333H16.6708V4.16667H3.33744V15.8333H16.6708V14.1667ZM17.5041 12.5V7.5H11.6708C10.29 7.5 9.17079 8.61926 9.17079 10C9.17079 11.3807 10.29 12.5 11.6708 12.5H17.5041ZM11.6708 9.16667H14.1708V10.8333H11.6708V9.16667Z" fill="#544B99"/>
</g>
<defs>
<clipPath id="clip0_3929_49200">
<rect width="20" height="20" fill="white"/>
</clipPath>
</defs>
</svg>
