<svg width="25" height="24" viewBox="0 0 25 24" fill="none" xmlns="http://www.w3.org/2000/svg">
<path d="M2.0498 21.4512H20.9498" stroke="#544B99" stroke-width="1.5" stroke-miterlimit="10" stroke-linecap="round" stroke-linejoin="round"/>
<path d="M2.94824 21.4499L2.99549 10.0815C2.99549 9.50509 3.26954 8.95704 3.72314 8.59794L10.3381 3.44768C11.0185 2.91848 11.973 2.91848 12.6628 3.44768L19.2778 8.58848C19.7409 8.94758 20.0055 9.49564 20.0055 10.0815V21.4499" stroke="#544B99" stroke-width="1.5" stroke-miterlimit="10" stroke-linejoin="round"/>
<path d="M12.4447 16.7246H10.5547C9.77036 16.7246 9.13721 17.3578 9.13721 18.1421V21.4496H13.8622V18.1421C13.8622 17.3578 13.2291 16.7246 12.4447 16.7246Z" stroke="#544B99" stroke-width="1.5" stroke-miterlimit="10" stroke-linejoin="round"/>
<path d="M9.13822 13.6532H7.24822C6.72847 13.6532 6.30322 13.228 6.30322 12.7082V11.2907C6.30322 10.771 6.72847 10.3457 7.24822 10.3457H9.13822C9.65797 10.3457 10.0832 10.771 10.0832 11.2907V12.7082C10.0832 13.228 9.65797 13.6532 9.13822 13.6532Z" stroke="#544B99" stroke-width="1.5" stroke-miterlimit="10" stroke-linejoin="round"/>
<path d="M15.7539 13.6532H13.8639C13.3442 13.6532 12.9189 13.228 12.9189 12.7082V11.2907C12.9189 10.771 13.3442 10.3457 13.8639 10.3457H15.7539C16.2737 10.3457 16.6989 10.771 16.6989 11.2907V12.7082C16.6989 13.228 16.2737 13.6532 15.7539 13.6532Z" stroke="#544B99" stroke-width="1.5" stroke-miterlimit="10" stroke-linejoin="round"/>
<path d="M18.1141 7.27445L18.0857 4.43945H13.9277" stroke="#544B99" stroke-width="1.5" stroke-miterlimit="10" stroke-linecap="round" stroke-linejoin="round"/>
</svg>
