<svg width="24" height="24" viewBox="0 0 24 24" fill="none" xmlns="http://www.w3.org/2000/svg">
<path d="M2 18.9984V8.34844C2 7.93177 2.11267 7.55677 2.338 7.22344C2.56333 6.8901 2.86733 6.64844 3.25 6.49844L11.25 3.29844C11.4833 3.19844 11.7333 3.14844 12 3.14844C12.2667 3.14844 12.5167 3.19844 12.75 3.29844L20.75 6.49844C21.1333 6.64844 21.4377 6.8901 21.663 7.22344C21.8883 7.55677 22.0007 7.93177 22 8.34844V18.9984C22 19.5484 21.8043 20.0194 21.413 20.4114C21.0217 20.8034 20.5507 20.9991 20 20.9984H16V12.9984H8V20.9984H4C3.45 20.9984 2.97933 20.8028 2.588 20.4114C2.19667 20.0201 2.00067 19.5491 2 18.9984ZM9 20.9984V18.9984H11V20.9984H9ZM11 17.9984V15.9984H13V17.9984H11ZM13 20.9984V18.9984H15V20.9984H13Z" fill="#544B99"/>
</svg>
