<svg width="38" height="38" viewBox="0 0 38 38" fill="none" xmlns="http://www.w3.org/2000/svg">
<rect x="12.667" y="7.9165" width="19" height="22.1667" rx="2" fill="url(#paint0_linear_716_57446)"/>
<path d="M12.667 24.5415H31.667V28.0832C31.667 29.1877 30.7716 30.0832 29.667 30.0832H14.667C13.5624 30.0832 12.667 29.1877 12.667 28.0832V24.5415Z" fill="url(#paint1_linear_716_57446)"/>
<rect x="12.667" y="19" width="19" height="5.54167" fill="url(#paint2_linear_716_57446)"/>
<rect x="12.667" y="13.458" width="19" height="5.54167" fill="url(#paint3_linear_716_57446)"/>
<path d="M12.667 16.458C12.667 14.8012 14.0101 13.458 15.667 13.458H19.167C20.8238 13.458 22.167 14.8012 22.167 16.458V24.708C22.167 26.3649 20.8238 27.708 19.167 27.708H12.667V16.458Z" fill="black" fill-opacity="0.3"/>
<rect x="6.3335" y="11.875" width="14.25" height="14.25" rx="2" fill="url(#paint4_linear_716_57446)"/>
<path d="M18.2085 15.0527H16.6666L15.4558 20.2182L14.1312 15.0415H12.8272L11.4923 20.2182L10.2918 15.0527H8.7085L10.7679 22.9582H12.1339L13.4585 17.9611L14.7831 22.9582H16.1491L18.2085 15.0527Z" fill="white"/>
<defs>
<linearGradient id="paint0_linear_716_57446" x1="12.667" y1="11.6109" x2="31.667" y2="11.6109" gradientUnits="userSpaceOnUse">
<stop stop-color="#2B78B1"/>
<stop offset="1" stop-color="#338ACD"/>
</linearGradient>
<linearGradient id="paint1_linear_716_57446" x1="12.667" y1="28.005" x2="31.667" y2="28.005" gradientUnits="userSpaceOnUse">
<stop stop-color="#1B366F"/>
<stop offset="1" stop-color="#2657B0"/>
</linearGradient>
<linearGradient id="paint2_linear_716_57446" x1="20.9795" y1="22.1667" x2="31.667" y2="22.1667" gradientUnits="userSpaceOnUse">
<stop stop-color="#20478B"/>
<stop offset="1" stop-color="#2D6FD1"/>
</linearGradient>
<linearGradient id="paint3_linear_716_57446" x1="20.9795" y1="16.6247" x2="31.667" y2="16.6247" gradientUnits="userSpaceOnUse">
<stop stop-color="#215295"/>
<stop offset="1" stop-color="#2E84D3"/>
</linearGradient>
<linearGradient id="paint4_linear_716_57446" x1="6.3335" y1="19.7917" x2="21.3752" y2="19.7917" gradientUnits="userSpaceOnUse">
<stop stop-color="#223E74"/>
<stop offset="1" stop-color="#215091"/>
</linearGradient>
</defs>
</svg>
