<svg width="24" height="24" viewBox="0 0 24 24" fill="none" xmlns="http://www.w3.org/2000/svg">
<path d="M12.0011 17.3498C12.9013 17.3498 13.6311 16.6201 13.6311 15.7198C13.6311 14.8196 12.9013 14.0898 12.0011 14.0898C11.1009 14.0898 10.3711 14.8196 10.3711 15.7198C10.3711 16.6201 11.1009 17.3498 12.0011 17.3498Z" fill="#7631FF"/>
<path opacity="0.4" d="M16.65 9.44043H7.35C3.25 9.44043 2 10.6904 2 14.7904V16.6504C2 20.7504 3.25 22.0004 7.35 22.0004H16.65C20.75 22.0004 22 20.7504 22 16.6504V14.7904C22 10.6904 20.75 9.44043 16.65 9.44043ZM12 18.7404C10.33 18.7404 8.98 17.3804 8.98 15.7204C8.98 14.0604 10.33 12.7004 12 12.7004C13.67 12.7004 15.02 14.0604 15.02 15.7204C15.02 17.3804 13.67 18.7404 12 18.7404Z" fill="#7631FF"/>
<path d="M7.11875 9.45V8.28C7.11875 5.35 7.94875 3.4 11.9988 3.4C16.0487 3.4 16.8787 5.35 16.8787 8.28V9.45C17.3888 9.46 17.8488 9.48 18.2788 9.54V8.28C18.2788 5.58 17.6287 2 11.9988 2C6.36875 2 5.71875 5.58 5.71875 8.28V9.53C6.13875 9.48 6.60875 9.45 7.11875 9.45Z" fill="#7631FF"/>
</svg>
