<svg width="24" height="24" viewBox="0 0 24 24" fill="none" xmlns="http://www.w3.org/2000/svg">
<path d="M15.7854 19.4876C15.6251 19.5261 15.4897 19.365 15.5552 19.2137L16.2042 17.713L17.3736 19.1064L15.7854 19.4876Z" fill="#777C85"/>
<path d="M21.918 12.9043L23.0887 14.2962L17.521 18.9793L16.3502 17.5874L21.918 12.9043Z" fill="#777C85"/>
<path d="M22.3127 12.5699C22.524 12.3921 22.8394 12.4194 23.0172 12.6307L23.5442 13.2573C23.722 13.4687 23.6948 13.7841 23.4834 13.9618L23.4021 14.0302L22.2313 12.6383L22.3127 12.5699Z" fill="#777C85"/>
<path d="M15.7656 3.51367H17.1731C18.2776 3.51367 19.1731 4.4091 19.1731 5.51367V13.8852" stroke="#777C85" stroke-width="1.5"/>
<path d="M5.16406 3.77145V3.50156C5.16406 2.98787 5.58049 2.57144 6.09419 2.57144C6.4514 2.57144 6.77705 2.36687 6.93211 2.04507L7.163 1.56591C7.3297 1.21994 7.67982 1 8.06387 1H11.4678C11.7888 1 12.0903 1.15407 12.2783 1.41421L12.8153 2.15723C13.0034 2.41737 13.306 2.57144 13.6269 2.57144C14.1792 2.57144 14.6291 3.01915 14.6291 3.57144V3.77145C14.6291 4.32374 14.1814 4.77145 13.6291 4.77145H6.16406C5.61178 4.77145 5.16406 4.32374 5.16406 3.77145Z" fill="#777C85" stroke="#777C85"/>
<path d="M4.33901 3.51367H3C1.89543 3.51367 1 4.4091 1 5.51367V20.9995C1 22.1041 1.89543 22.9995 3 22.9995H17.173C18.2775 22.9995 19.173 22.1041 19.173 20.9995V19.3884" stroke="#777C85" stroke-width="1.5"/>
<path d="M9.33203 8.23047H16.1469" stroke="#777C85" stroke-linecap="round"/>
<path d="M9.33203 12H16.1469" stroke="#777C85" stroke-linecap="round"/>
<path d="M9.33203 15.1426H16.1469" stroke="#777C85" stroke-linecap="round"/>
<path d="M9.33203 18.2871H14.6325" stroke="#777C85" stroke-linecap="round"/>
<path d="M3.27344 8.85693L4.66011 10.008C4.73417 10.0695 4.84153 10.0695 4.9156 10.008L7.43807 7.91406" stroke="#777C85" stroke-linecap="round"/>
<path d="M3.27344 12.0015L4.66011 13.1526C4.73417 13.214 4.84153 13.214 4.9156 13.1526L7.43807 11.0586" stroke="#777C85" stroke-linecap="round"/>
<path d="M3.27344 15.144L4.66011 16.2951C4.73417 16.3566 4.84153 16.3566 4.9156 16.2951L7.43807 14.2012" stroke="#777C85" stroke-linecap="round"/>
<circle cx="5" cy="19" r="1" fill="#777C85"/>
</svg>
