<svg width="24" height="24" viewBox="0 0 24 24" fill="none" xmlns="http://www.w3.org/2000/svg">
<path opacity="0.4" d="M20.0984 6.93998C20.0984 7.47998 19.8084 7.96995 19.3484 8.21995L17.6084 9.15995L16.1284 9.94999L13.0584 11.61C12.7284 11.79 12.3684 11.88 11.9984 11.88C11.6284 11.88 11.2684 11.79 10.9384 11.61L4.64844 8.21995C4.18844 7.96995 3.89844 7.47998 3.89844 6.93998C3.89844 6.39998 4.18844 5.90995 4.64844 5.65995L6.61844 4.59996L8.18845 3.74998L10.9384 2.27C11.5984 1.91 12.3984 1.91 13.0584 2.27L19.3484 5.65995C19.8084 5.90995 20.0984 6.39998 20.0984 6.93998Z" fill="#7631FF"/>
<path opacity="0.4" d="M9.89874 12.7904L4.04874 9.86038C3.59874 9.63038 3.07874 9.66037 2.64874 9.92037C2.21874 10.1804 1.96875 10.6404 1.96875 11.1404V16.6704C1.96875 17.6304 2.49873 18.4904 3.35873 18.9204L9.20874 21.8404C9.40874 21.9404 9.62876 21.9904 9.84875 21.9904C10.1088 21.9904 10.3688 21.9204 10.5988 21.7704C11.0288 21.5104 11.2787 21.0504 11.2787 20.5504V15.0204C11.2887 14.0804 10.7587 13.2204 9.89874 12.7904Z" fill="#7631FF"/>
<path opacity="0.4" d="M22.0309 11.1497V16.6796C22.0309 17.6296 21.501 18.4896 20.641 18.9196L14.791 21.8496C14.591 21.9496 14.3709 21.9996 14.1509 21.9996C13.8909 21.9996 13.631 21.9297 13.391 21.7797C12.971 21.5197 12.7109 21.0596 12.7109 20.5596V15.0396C12.7109 14.0796 13.241 13.2196 14.101 12.7896L16.2509 11.7196L17.7509 10.9696L19.951 9.86964C20.401 9.63964 20.921 9.65964 21.351 9.92964C21.771 10.1896 22.0309 10.6497 22.0309 11.1497Z" fill="#7631FF"/>
<path d="M17.6111 9.15997L16.1311 9.95001L6.62109 4.59998L8.1911 3.75L17.3711 8.92999C17.4711 8.98999 17.5511 9.06997 17.6111 9.15997Z" fill="#7631FF"/>
<path d="M17.75 10.9697V13.2397C17.75 13.6497 17.41 13.9897 17 13.9897C16.59 13.9897 16.25 13.6497 16.25 13.2397V11.7197L17.75 10.9697Z" fill="#7631FF"/>
</svg>
