<svg width="24" height="24" viewBox="0 0 24 24" fill="none" xmlns="http://www.w3.org/2000/svg">
<path opacity="0.4" d="M16.19 2H7.81C4.17 2 2 4.17 2 7.81V16.19C2 19.83 4.17 22 7.81 22H16.19C19.83 22 22 19.83 22 16.19V7.81C22 4.17 19.83 2 16.19 2Z" fill="#544B99"/>
<path d="M18.3086 8.87012C18.3086 9.28012 17.9786 9.62012 17.5586 9.62012H12.3086C11.8986 9.62012 11.5586 9.28012 11.5586 8.87012C11.5586 8.46012 11.8986 8.12012 12.3086 8.12012H17.5586C17.9786 8.12012 18.3086 8.46012 18.3086 8.87012Z" fill="#544B99"/>
<path d="M9.96859 7.89957L7.71859 10.1496C7.56859 10.2996 7.37859 10.3696 7.18859 10.3696C6.99859 10.3696 6.79859 10.2996 6.65859 10.1496L5.90859 9.39957C5.60859 9.10957 5.60859 8.62957 5.90859 8.33957C6.19859 8.04957 6.66859 8.04957 6.96859 8.33957L7.18859 8.55957L8.90859 6.83957C9.19859 6.54957 9.66859 6.54957 9.96859 6.83957C10.2586 7.12957 10.2586 7.60957 9.96859 7.89957Z" fill="#544B99"/>
<path d="M18.3086 15.8701C18.3086 16.2801 17.9786 16.6201 17.5586 16.6201H12.3086C11.8986 16.6201 11.5586 16.2801 11.5586 15.8701C11.5586 15.4601 11.8986 15.1201 12.3086 15.1201H17.5586C17.9786 15.1201 18.3086 15.4601 18.3086 15.8701Z" fill="#544B99"/>
<path d="M9.96859 14.8996L7.71859 17.1496C7.56859 17.2996 7.37859 17.3696 7.18859 17.3696C6.99859 17.3696 6.79859 17.2996 6.65859 17.1496L5.90859 16.3996C5.60859 16.1096 5.60859 15.6296 5.90859 15.3396C6.19859 15.0496 6.66859 15.0496 6.96859 15.3396L7.18859 15.5596L8.90859 13.8396C9.19859 13.5496 9.66859 13.5496 9.96859 13.8396C10.2586 14.1296 10.2586 14.6096 9.96859 14.8996Z" fill="#544B99"/>
</svg>
