<svg width="24" height="24" viewBox="0 0 24 24" fill="none" xmlns="http://www.w3.org/2000/svg">
<path d="M21.04 13.2789L20.12 12.3789L12.37 20.1189L13.3 21.0489C14.08 21.8289 14.89 22.2189 15.69 22.2189C16.49 22.2189 17.3 21.8289 18.08 21.0489L21.04 18.0889C22.63 16.4889 22.63 14.8789 21.04 13.2789Z" fill="#7631FF"/>
<path d="M10.69 2.93141C9.11999 1.36141 7.46999 1.36141 5.89999 2.93141L2.92999 5.89141C1.36999 7.46141 1.36999 9.11141 2.92999 10.6814L3.84999 11.6014L11.6 3.85141L10.69 2.93141Z" fill="#7631FF"/>
<path opacity="0.4" d="M21.81 3.93814C20.5 7.20814 17.51 11.4781 14.66 14.2681C14.25 11.6881 12.19 9.66814 9.59 9.30814C12.39 6.44814 16.69 3.41814 19.97 2.09814C20.55 1.87814 21.13 2.04814 21.49 2.40814C21.87 2.78814 22.05 3.35814 21.81 3.93814Z" fill="#7631FF"/>
<path d="M14.66 14.2686C14.16 14.7586 13.66 15.2086 13.18 15.5886L11.21 17.1686C10.96 17.3486 10.71 17.4986 10.43 17.6186C10.43 17.4286 10.41 17.2386 10.39 17.0386C10.28 16.2086 9.9 15.4186 9.23 14.7486C8.54 14.0686 7.72 13.6786 6.87 13.5686C6.67 13.5486 6.46 13.5386 6.27 13.5486C6.38 13.2386 6.55 12.9486 6.76 12.7086L8.32 10.7386C8.69 10.2686 9.12 9.78859 9.59 9.30859C12.19 9.66859 14.25 11.6886 14.66 14.2686Z" fill="#7631FF"/>
<path opacity="0.4" d="M10.43 17.6208C10.43 18.7208 10.01 19.7708 9.20999 20.5608C8.59999 21.1808 7.77999 21.6008 6.77999 21.7208L4.32999 21.9908C2.98999 22.1408 1.83999 20.9908 1.98999 19.6408L2.25999 17.1808C2.49999 14.9908 4.32999 13.5908 6.26999 13.5508C6.45999 13.5408 6.66999 13.5508 6.86999 13.5708C7.71999 13.6808 8.53999 14.0708 9.22999 14.7508C9.89999 15.4208 10.28 16.2108 10.39 17.0408C10.41 17.2408 10.43 17.4308 10.43 17.6208Z" fill="#7631FF"/>
</svg>
