<svg width="24" height="24" viewBox="0 0 24 24" fill="none" xmlns="http://www.w3.org/2000/svg">
<path d="M21.0411 13.2799L20.1211 12.3799L12.3711 20.1199L13.3011 21.0499C14.0811 21.8299 14.8911 22.2199 15.6911 22.2199C16.4911 22.2199 17.3011 21.8299 18.0811 21.0499L21.0411 18.0899C22.6311 16.4899 22.6311 14.8799 21.0411 13.2799Z" fill="#7631FF"/>
<path d="M10.6917 2.93043C9.12172 1.36043 7.47172 1.36043 5.90172 2.93043L2.93172 5.89043C1.37172 7.46043 1.37172 9.11043 2.93172 10.6804L3.85172 11.6004L11.6017 3.85043L10.6917 2.93043Z" fill="#7631FF"/>
<path opacity="0.4" d="M21.8098 3.94009C20.4998 7.21009 17.5098 11.4801 14.6598 14.2701C14.2498 11.6901 12.1898 9.67009 9.58984 9.31009C12.3898 6.45009 16.6898 3.42009 19.9698 2.10009C20.5498 1.88009 21.1298 2.05009 21.4898 2.41009C21.8698 2.79009 22.0498 3.36009 21.8098 3.94009Z" fill="#7631FF"/>
<path d="M14.6595 14.2696C14.1595 14.7596 13.6595 15.2096 13.1795 15.5896L11.2095 17.1696C10.9595 17.3496 10.7095 17.4996 10.4295 17.6196C10.4295 17.4296 10.4095 17.2396 10.3895 17.0396C10.2795 16.2096 9.89953 15.4196 9.22953 14.7496C8.53953 14.0696 7.71953 13.6796 6.86953 13.5696C6.66953 13.5496 6.45953 13.5396 6.26953 13.5496C6.37953 13.2396 6.54953 12.9496 6.75953 12.7096L8.31953 10.7396C8.68953 10.2696 9.11953 9.78957 9.58953 9.30957C12.1895 9.66957 14.2495 11.6896 14.6595 14.2696Z" fill="#7631FF"/>
<path opacity="0.4" d="M10.4298 17.6198C10.4298 18.7198 10.0098 19.7698 9.20976 20.5598C8.59976 21.1798 7.77977 21.5998 6.77977 21.7198L4.32976 21.9898C2.98976 22.1398 1.83976 20.9898 1.98976 19.6398L2.25976 17.1798C2.49976 14.9898 4.32976 13.5898 6.26976 13.5498C6.45976 13.5398 6.66976 13.5498 6.86976 13.5698C7.71976 13.6798 8.53976 14.0698 9.22976 14.7498C9.89976 15.4198 10.2798 16.2098 10.3898 17.0398C10.4098 17.2398 10.4298 17.4298 10.4298 17.6198Z" fill="#7631FF"/>
</svg>
