<svg width="24" height="24" viewBox="0 0 24 24" fill="none" xmlns="http://www.w3.org/2000/svg">
<path d="M21.8095 3.93792C20.2695 7.77792 16.4095 12.9979 13.1795 15.5879L11.2095 17.1679C10.9595 17.3479 10.7095 17.5079 10.4295 17.6179C10.4295 17.4379 10.4195 17.2379 10.3895 17.0479C10.2795 16.2079 9.89953 15.4279 9.22953 14.7579C8.54953 14.0779 7.71953 13.6779 6.86953 13.5679C6.66953 13.5579 6.46953 13.5379 6.26953 13.5579C6.37953 13.2479 6.54953 12.9579 6.75953 12.7179L8.31953 10.7479C10.8995 7.51792 16.1395 3.63792 19.9695 2.10792C20.5595 1.88792 21.1295 2.04792 21.4895 2.41792C21.8695 2.78792 22.0495 3.35792 21.8095 3.93792Z" stroke="#777C85" stroke-width="1.5" stroke-linecap="round" stroke-linejoin="round"/>
<path d="M10.4293 17.6188C10.4293 18.7188 10.0093 19.7688 9.2193 20.5688C8.6093 21.1788 7.7793 21.5988 6.7893 21.7288L4.3293 21.9988C2.9893 22.1488 1.8393 21.0088 1.9993 19.6488L2.2693 17.1888C2.5093 14.9988 4.3393 13.5988 6.2793 13.5588C6.4793 13.5488 6.6893 13.5588 6.8793 13.5688C7.7293 13.6788 8.5593 14.0688 9.2393 14.7588C9.9093 15.4288 10.2893 16.2088 10.3993 17.0488C10.4093 17.2388 10.4293 17.4288 10.4293 17.6188Z" stroke="#777C85" stroke-width="1.5" stroke-linecap="round" stroke-linejoin="round"/>
<path d="M14.2417 14.4722C14.2417 11.8622 12.1217 9.74219 9.51172 9.74219" stroke="#777C85" stroke-width="1.5" stroke-linecap="round" stroke-linejoin="round"/>
<path d="M20.1188 12.7344L20.8588 13.4644C22.3488 14.9544 22.3488 16.4244 20.8588 17.9144L17.8987 20.8744C16.4287 22.3444 14.9388 22.3444 13.4688 20.8744" stroke="#777C85" stroke-width="1.5" stroke-linecap="round"/>
<path d="M3.11031 10.5125C1.64031 9.0225 1.64031 7.5525 3.11031 6.0625L6.07031 3.1025C7.54031 1.6325 9.03031 1.6325 10.5003 3.1025L11.2403 3.8425" stroke="#777C85" stroke-width="1.5" stroke-linecap="round"/>
<path d="M11.2508 3.85156L7.55078 7.55156" stroke="#777C85" stroke-width="1.5" stroke-linecap="round"/>
<path d="M20.1202 12.7344L17.1602 15.6844" stroke="#777C85" stroke-width="1.5" stroke-linecap="round"/>
</svg>
