<svg width="24" height="24" viewBox="0 0 24 24" fill="none" xmlns="http://www.w3.org/2000/svg">
<path opacity="0.4" d="M21 22.75H3C2.59 22.75 2.25 22.41 2.25 22C2.25 21.59 2.59 21.25 3 21.25H21C21.41 21.25 21.75 21.59 21.75 22C21.75 22.41 21.41 22.75 21 22.75Z" fill="#544B99"/>
<path d="M5.59998 8.37988H4C3.45 8.37988 3 8.82988 3 9.37988V17.9999C3 18.5499 3.45 18.9999 4 18.9999H5.59998C6.14998 18.9999 6.59998 18.5499 6.59998 17.9999V9.37988C6.59998 8.81988 6.14998 8.37988 5.59998 8.37988Z" fill="#544B99"/>
<path d="M12.7992 5.19043H11.1992C10.6492 5.19043 10.1992 5.64043 10.1992 6.19043V18.0004C10.1992 18.5504 10.6492 19.0004 11.1992 19.0004H12.7992C13.3492 19.0004 13.7992 18.5504 13.7992 18.0004V6.19043C13.7992 5.64043 13.3492 5.19043 12.7992 5.19043Z" fill="#544B99"/>
<path d="M19.9984 2H18.3984C17.8484 2 17.3984 2.45 17.3984 3V18C17.3984 18.55 17.8484 19 18.3984 19H19.9984C20.5484 19 20.9984 18.55 20.9984 18V3C20.9984 2.45 20.5484 2 19.9984 2Z" fill="#544B99"/>
</svg>
