<svg width="24" height="24" viewBox="0 0 24 24" fill="none" xmlns="http://www.w3.org/2000/svg">
<path fill-rule="evenodd" clip-rule="evenodd" d="M20.8054 7.62386L20.183 6.54377C19.6564 5.62985 18.4895 5.31456 17.5743 5.83896V5.83896C17.1387 6.09559 16.6189 6.1684 16.1295 6.04133C15.6401 5.91427 15.2214 5.59776 14.9656 5.16162C14.8011 4.88439 14.7127 4.56864 14.7093 4.24628V4.24628C14.7242 3.72947 14.5292 3.22865 14.1688 2.85791C13.8084 2.48718 13.3133 2.27811 12.7963 2.27832H11.5423C11.0357 2.27831 10.5501 2.48016 10.1928 2.83919C9.83547 3.19822 9.63595 3.68484 9.63839 4.19136V4.19136C9.62338 5.23717 8.77126 6.07706 7.72535 6.07695C7.40299 6.0736 7.08724 5.98519 6.81001 5.82065V5.82065C5.89484 5.29626 4.72789 5.61154 4.20132 6.52546L3.53313 7.62386C3.00719 8.53664 3.31818 9.70285 4.22878 10.2326V10.2326C4.82068 10.5743 5.18531 11.2058 5.18531 11.8893C5.18531 12.5728 4.82068 13.2043 4.22878 13.5461V13.5461C3.31934 14.0722 3.00801 15.2356 3.53313 16.1456V16.1456L4.1647 17.2348C4.41143 17.68 4.82538 18.0085 5.31497 18.1477C5.80456 18.2868 6.32942 18.2251 6.7734 17.9763V17.9763C7.20986 17.7216 7.72997 17.6518 8.21812 17.7824C8.70627 17.9131 9.12201 18.2333 9.37294 18.6719C9.53748 18.9491 9.62589 19.2649 9.62924 19.5872V19.5872C9.62924 20.6438 10.4857 21.5003 11.5423 21.5003H12.7963C13.8493 21.5003 14.7043 20.6494 14.7093 19.5964V19.5964C14.7069 19.0883 14.9076 18.6003 15.2669 18.241C15.6262 17.8817 16.1143 17.6809 16.6224 17.6834C16.944 17.692 17.2584 17.78 17.5377 17.9396V17.9396C18.4505 18.4656 19.6167 18.1546 20.1464 17.244V17.244L20.8054 16.1456C21.0605 15.7077 21.1305 15.1863 21 14.6966C20.8694 14.207 20.549 13.7896 20.1098 13.5369V13.5369C19.6705 13.2842 19.3502 12.8668 19.2196 12.3772C19.089 11.8875 19.159 11.3661 19.4141 10.9282C19.58 10.6386 19.8202 10.3984 20.1098 10.2326V10.2326C21.0149 9.70314 21.3252 8.54374 20.8054 7.63301V7.63301V7.62386Z" stroke="#777C85" stroke-width="1.5" stroke-linecap="round" stroke-linejoin="round"/>
<circle cx="12.1752" cy="11.8891" r="2.63616" stroke="#777C85" stroke-width="1.5" stroke-linecap="round" stroke-linejoin="round"/>
</svg>
